<svg xmlns="http://www.w3.org/2000/svg" width="20.451" height="25.566" viewBox="0 0 20.451 25.566">
  <g id="Grupo_7" data-name="Grupo 7" transform="translate(-237.659 -189.819)">
    <path id="Trazado_18" data-name="Trazado 18" d="M247.879,221.417a23.124,23.124,0,0,1-8.22-1.744,3.23,3.23,0,0,1-1.983-3.34c.1-1,.164-1.994.29-2.986a3.1,3.1,0,0,1,1.884-2.536c1.14-.531,2.3-1.028,3.447-1.533a.9.9,0,1,1,.716,1.64c-1.079.485-2.158.972-3.245,1.438a1.583,1.583,0,0,0-1.058,1.4c-.081.941-.182,1.881-.244,2.824a1.393,1.393,0,0,0,.957,1.467,19.506,19.506,0,0,0,8.546,1.473,19.814,19.814,0,0,0,6.4-1.476,1.461,1.461,0,0,0,.921-1.6c-.1-.93-.189-1.861-.284-2.791a1.457,1.457,0,0,0-.934-1.244q-1.685-.752-3.372-1.5a.891.891,0,0,1,.606-1.674c1.293.549,2.593,1.092,3.844,1.727a3.131,3.131,0,0,1,1.673,2.714c.074.84.14,1.681.252,2.515a3.266,3.266,0,0,1-1.866,3.44,19.5,19.5,0,0,1-5.05,1.445C250.075,221.229,248.974,221.306,247.879,221.417Z" transform="translate(0 -6.032)" fill="#fff"/>
    <path id="Trazado_19" data-name="Trazado 19" d="M255.561,196.952a8.323,8.323,0,0,1-.917,3.937,4.765,4.765,0,0,1-3.818,2.533,6.445,6.445,0,0,1-3.092-.3,4.615,4.615,0,0,1-2.833-2.873,9.881,9.881,0,0,1,.186-7.6,4.711,4.711,0,0,1,4.271-2.806,6.306,6.306,0,0,1,2.786.351,4.993,4.993,0,0,1,3,3.415A10.813,10.813,0,0,1,255.561,196.952Zm-9.486-.216a7.733,7.733,0,0,0,.34,2.5,3.13,3.13,0,0,0,2.142,2.254,5.411,5.411,0,0,0,1.312.194,3.315,3.315,0,0,0,3.622-2.7,7.864,7.864,0,0,0,.239-1.42,9.247,9.247,0,0,0-.258-3.363,3.166,3.166,0,0,0-2.333-2.441,6.547,6.547,0,0,0-1.514-.138,3.169,3.169,0,0,0-3.1,2.142A7.807,7.807,0,0,0,246.075,196.736Z" transform="translate(-2.05 0)" fill="#fff"/>
  </g>
</svg>
