<svg xmlns="http://www.w3.org/2000/svg" width="22.965" height="21.761" viewBox="0 0 22.965 21.761">
  <path id="Trazado_496" data-name="Trazado 496" d="M349.064,211.228a2.061,2.061,0,0,0,1.943,1.986c.838.021,1.678.018,2.515.015l.822,0a1.9,1.9,0,0,0,.415-.037,2.121,2.121,0,0,0,1.714-2.118c0-.551,0-1.1,0-1.653v-1.081a1.773,1.773,0,0,1,.032-.411,1.382,1.382,0,0,1,1.375-1.084,1.568,1.568,0,0,1,.164.009,1.37,1.37,0,0,1,1.243,1.378c0,.423,0,.847,0,1.27,0,.535,0,1.069,0,1.6a2.094,2.094,0,0,0,2.055,2.116c1.077.028,2.207.026,3.358,0a2.016,2.016,0,0,0,1.939-1.928c.02-1.535.019-3.07.017-4.6V204.26l.224-.017c.1-.008.191-.011.281-.015a2.623,2.623,0,0,0,.449-.043,2.034,2.034,0,0,0,1.637-1.521,2,2,0,0,0-.63-2.137q-3.39-3.1-6.79-6.186l-2.444-2.224a2.1,2.1,0,0,0-3.006-.016q-2.252,2.05-4.5,4.105l-2.517,2.3c-.764.7-1.529,1.391-2.285,2.095a2.011,2.011,0,0,0-.612,2.148,1.934,1.934,0,0,0,1.574,1.437,3,3,0,0,0,.5.046c.093,0,.188.006.287.014l.224.016v2.5C349.056,208.247,349.055,209.738,349.064,211.228Zm-.128-8.822-1.126.06,10.074-9.216,9.937,8.99-.634.074a1.253,1.253,0,0,1-.174.016h-1.105a.98.98,0,0,0-1.085,1.081v7.908H361.18v-3.109a3.313,3.313,0,0,0-2.865-3.246,3.274,3.274,0,0,0-3.664,2.7,12.456,12.456,0,0,0-.06,1.568c0,.222,0,.444,0,.666-.005.269,0,.537,0,.809v.62h-3.636v-7.915a1.086,1.086,0,0,0-.3-.826,1.117,1.117,0,0,0-.866-.232C349.51,202.379,349.236,202.392,348.936,202.406Z" transform="translate(-346.38 -191.477)" fill="#e100ff"/>
</svg>
