<svg xmlns="http://www.w3.org/2000/svg" width="20.883" height="20.876" viewBox="0 0 20.883 20.876">
  <g id="Grupo_111" data-name="Grupo 111" transform="translate(-93 -216.625)">
    <path id="Trazado_497" data-name="Trazado 497" d="M93,227.676v-1.223a1.691,1.691,0,0,0,.036-.2,9.928,9.928,0,0,1,.581-2.738,10.442,10.442,0,0,1,20.078,5.5,10.448,10.448,0,0,1-8.456,8.319c-.393.068-.791.108-1.187.161h-1.223c-.275-.033-.552-.061-.826-.1a10.444,10.444,0,0,1-8.841-8.542C93.092,228.468,93.053,228.071,93,227.676Zm19.654-.6a9.215,9.215,0,1,0-9.228,9.206A9.23,9.23,0,0,0,112.654,227.072Z" fill="#e100ff"/>
    <path id="Trazado_498" data-name="Trazado 498" d="M182.9,452.721a6.529,6.529,0,0,1-6.109-4.282.617.617,0,0,1,.333-.829.6.6,0,0,1,.8.386,5.487,5.487,0,0,0,1.5,2.194,5.3,5.3,0,0,0,6.591.286,5.353,5.353,0,0,0,1.842-2.434.611.611,0,0,1,.734-.455.6.6,0,0,1,.43.823,6.424,6.424,0,0,1-2.384,3.123A6.5,6.5,0,0,1,182.9,452.721Z" transform="translate(-79.463 -219.15)" fill="#e100ff"/>
    <path id="Trazado_499" data-name="Trazado 499" d="M170.058,334.7a2.572,2.572,0,0,1,5.087-.383,2.352,2.352,0,0,1,.056.525.608.608,0,0,1-1.215.032,1.368,1.368,0,0,0-1.037-1.345,1.344,1.344,0,0,0-1.657,1.142c-.007.067-.017.135-.026.2a.611.611,0,0,1-.641.575.619.619,0,0,1-.572-.687C170.054,334.738,170.057,334.718,170.058,334.7Z" transform="translate(-73.119 -109.735)" fill="#e100ff"/>
    <path id="Trazado_500" data-name="Trazado 500" d="M326.515,331.771a2.61,2.61,0,0,1,2.576,2.541.619.619,0,0,1-.577.664.6.6,0,0,1-.635-.579,1.405,1.405,0,0,0-.742-1.227,1.344,1.344,0,0,0-1.952.992c-.01.074-.021.148-.028.222a.615.615,0,0,1-.626.592.626.626,0,0,1-.594-.651,2.587,2.587,0,0,1,1.878-2.436C326.044,331.831,326.282,331.81,326.515,331.771Z" transform="translate(-219.147 -109.267)" fill="#e100ff"/>
  </g>
</svg>
