<svg xmlns="http://www.w3.org/2000/svg" width="29.901" height="19.642" viewBox="0 0 29.901 19.642">
  <g id="Grupo_6" data-name="Grupo 6" transform="translate(-154.008 -194.672)">
    <path id="Trazado_12" data-name="Trazado 12" d="M183.91,209.989a12.7,12.7,0,0,1-.187,1.32,7.494,7.494,0,0,1-.49,1.485,2.635,2.635,0,0,1-3.145,1.432,7,7,0,0,1-2.67-1.251,24.012,24.012,0,0,1-2.463-1.958,7.273,7.273,0,0,0-4.019-1.95,11.418,11.418,0,0,0-5.6.431,5.551,5.551,0,0,0-1.891,1.123A22.667,22.667,0,0,1,160,213.308a6.642,6.642,0,0,1-2.27.948,2.7,2.7,0,0,1-3.185-1.734,6.618,6.618,0,0,1-.47-2.092,17.108,17.108,0,0,1,.063-3.523,24.019,24.019,0,0,1,2.34-8.449,8.08,8.08,0,0,1,2.3-2.829,4.593,4.593,0,0,1,3.553-.887,38.405,38.405,0,0,1,4.1.855,9.724,9.724,0,0,0,5.253-.04c1.083-.3,2.184-.541,3.287-.757a5.238,5.238,0,0,1,5.551,2.16,15.459,15.459,0,0,1,2.4,5.3,25.961,25.961,0,0,1,.946,5.469,1.23,1.23,0,0,0,.054.22Zm-1.406-.936c0-.292.017-.585,0-.875a28.162,28.162,0,0,0-.989-5.758,13.551,13.551,0,0,0-2.052-4.5,4.157,4.157,0,0,0-4.319-1.73c-.983.169-1.949.433-2.928.628a27.235,27.235,0,0,1-3.034.531,10.678,10.678,0,0,1-3.216-.46c-1.191-.269-2.379-.569-3.584-.753a3.759,3.759,0,0,0-3.222,1.021,7.839,7.839,0,0,0-1.873,2.82,23.669,23.669,0,0,0-1.858,9.826,8.458,8.458,0,0,0,.341,2,1.364,1.364,0,0,0,1.817,1.032,6.191,6.191,0,0,0,1.244-.481,15.85,15.85,0,0,0,3.337-2.484,7.922,7.922,0,0,1,2.6-1.626,12.389,12.389,0,0,1,6.516-.51,8.088,8.088,0,0,1,4.311,2.092,23.2,23.2,0,0,0,1.9,1.6,7.486,7.486,0,0,0,2.729,1.462,1.444,1.444,0,0,0,1.948-1.094A7.927,7.927,0,0,0,182.5,209.053Z" fill="#c0005a"/>
    <path id="Trazado_13" data-name="Trazado 13" d="M168.068,204.36a2.157,2.157,0,0,1-1.757,2.129c-.165.029-.218.082-.246.247a2.178,2.178,0,0,1-2.171,1.753,2.151,2.151,0,0,1-2.078-1.745c-.025-.15-.067-.226-.244-.255a2.159,2.159,0,0,1-.044-4.25.306.306,0,0,0,.295-.287,2.16,2.16,0,0,1,4.24.015.287.287,0,0,0,.271.271A2.161,2.161,0,0,1,168.068,204.36Zm-4.137,2.736a.715.715,0,0,0,.762-.648,4.518,4.518,0,0,0,.025-.522.71.71,0,0,1,.686-.783c.2-.026.407-.011.61-.025a.735.735,0,0,0,.707-.741.753.753,0,0,0-.7-.788c-.164-.013-.33,0-.495,0a.738.738,0,0,1-.81-.785,5.558,5.558,0,0,0-.041-.608.681.681,0,0,0-.674-.6.7.7,0,0,0-.794.53,3.4,3.4,0,0,0-.052.693.729.729,0,0,1-.733.772c-.175.011-.351-.007-.524.008a.737.737,0,0,0-.736.777.747.747,0,0,0,.753.733c.174.013.35,0,.524.006a.7.7,0,0,1,.713.695c.009.184-.005.37.007.554A.746.746,0,0,0,163.931,207.1Z" transform="translate(-1.903 -1.83)" fill="#c0005a"/>
    <path id="Trazado_14" data-name="Trazado 14" d="M186.665,209.743a1.3,1.3,0,1,1-1.243-1.349A1.3,1.3,0,0,1,186.665,209.743Z" transform="translate(-9.925 -4.531)" fill="#c0005a"/>
    <path id="Trazado_15" data-name="Trazado 15" d="M181.408,204.46a1.288,1.288,0,0,1,1.307,1.309,1.316,1.316,0,0,1-1.3,1.3,1.342,1.342,0,0,1-1.319-1.323A1.313,1.313,0,0,1,181.408,204.46Z" transform="translate(-8.616 -3.232)" fill="#c0005a"/>
    <path id="Trazado_16" data-name="Trazado 16" d="M188.013,205.76a1.284,1.284,0,0,1,1.314-1.3,1.313,1.313,0,0,1,1.3,1.3,1.341,1.341,0,0,1-1.328,1.314A1.312,1.312,0,0,1,188.013,205.76Z" transform="translate(-11.229 -3.232)" fill="#c0005a"/>
    <path id="Trazado_17" data-name="Trazado 17" d="M186.666,201.8a1.3,1.3,0,0,1-2.6.02,1.3,1.3,0,1,1,2.6-.02Z" transform="translate(-9.924 -1.926)" fill="#c0005a"/>
  </g>
</svg>
