<svg xmlns="http://www.w3.org/2000/svg" width="56.815" height="43.841" viewBox="0 0 56.815 43.841">
  <g id="Grupo_25" data-name="Grupo 25" opacity="0.57">
    <path id="Trazado_123" data-name="Trazado 123" d="M2834.307-746.408l-9.242-2.932v-40.908c.39.079.762.15,1.131.23a114,114,0,0,1,11.076,3.091,27.1,27.1,0,0,1,5.358,2.3,10.652,10.652,0,0,1,4.268,4.265,12.362,12.362,0,0,1,1.231,4.255,22.161,22.161,0,0,1,.137,3.87,10.239,10.239,0,0,1-1.173,4.533,5.381,5.381,0,0,1-4.046,2.874,7.479,7.479,0,0,1-3.51-.374c-.452-.15-.887-.352-1.334-.517a.292.292,0,0,1-.211-.332q.008-5.974,0-11.948c0-.784-.006-1.569-.042-2.352a3.559,3.559,0,0,0-.508-1.767,2.116,2.116,0,0,0-1.54-.974,1.109,1.109,0,0,0-1.133.529,2.8,2.8,0,0,0-.447,1.413c-.02.238-.019.478-.019.717q0,16.834,0,33.668Z" transform="translate(-2803.809 790.249)" fill="#fff"/>
    <path id="Trazado_124" data-name="Trazado 124" d="M3070.221-179.876v-.219c0-1.7,0-3.407,0-5.11a.245.245,0,0,1,.2-.28,33.365,33.365,0,0,1,6.8-1.522,29.068,29.068,0,0,1,12.18,1.087,15.162,15.162,0,0,1,3.678,1.5,4.272,4.272,0,0,1,1.3,1.178,1.968,1.968,0,0,1-.033,2.4,5.426,5.426,0,0,1-1.531,1.329,17.659,17.659,0,0,1-3.667,1.646q-8.679,3.109-17.355,6.23c-.511.184-1.023.365-1.563.558,0-.1-.012-.175-.012-.252,0-1.621,0-3.242,0-4.864a.265.265,0,0,1,.207-.3q7.254-2.576,14.5-5.168c.4-.142.769-.355,1.152-.537a.433.433,0,0,0,.073-.052c.587-.449.544-.924-.125-1.244a5.078,5.078,0,0,0-2.051-.4,11.848,11.848,0,0,0-4.494.77c-3.01,1.088-6.034,2.134-9.052,3.2C3070.367-179.914,3070.3-179.9,3070.221-179.876Z" transform="translate(-3037.959 214.286)" fill="#fff"/>
    <path id="Trazado_125" data-name="Trazado 125" d="M2370.847-238.893v.242c0,1.629,0,3.257,0,4.886a.279.279,0,0,1-.222.317q-4.6,1.635-9.187,3.286a11.736,11.736,0,0,0-1.072.5.872.872,0,0,0-.18.132c-.5.424-.458.854.124,1.158a4.277,4.277,0,0,0,1.663.408,11.371,11.371,0,0,0,5.15-.818c1.153-.451,2.325-.852,3.489-1.274.068-.025.138-.045.222-.072v4.8c-.584.092-1.162.194-1.744.271a29.753,29.753,0,0,1-4.179.261,30.767,30.767,0,0,1-9.242-1.528,10.67,10.67,0,0,1-2.619-1.134,4.008,4.008,0,0,1-1.341-1.328,2.107,2.107,0,0,1,.641-2.838,12.031,12.031,0,0,1,3.063-1.7c1.848-.72,3.714-1.394,5.581-2.064,3.187-1.144,6.379-2.271,9.57-3.4C2370.652-238.833,2370.737-238.858,2370.847-238.893Z" transform="translate(-2351.409 263.636)" fill="#fff"/>
  </g>
</svg>
