<svg xmlns="http://www.w3.org/2000/svg" width="127.999" height="37.808" viewBox="0 0 127.999 37.808">
  <g id="Grupo_24" data-name="Grupo 24" opacity="0.57">
    <path id="Trazado_146" data-name="Trazado 146" d="M1625.862-605.7c.842.139,1.689.251,2.524.422a18.3,18.3,0,0,1,5.629,2.233c.071.042.133.1.324.242-.333-.028-.525-.043-.717-.061a11.971,11.971,0,0,0-5.569,1.042c-1.118.446-2.2.988-3.277,1.527a.751.751,0,0,1-.811,0,19.6,19.6,0,0,0-6.857-2.5,22.322,22.322,0,0,0-2.721-.017c.256-.168.4-.271.546-.357a18.186,18.186,0,0,1,7.631-2.444,2.187,2.187,0,0,0,.351-.087Z" transform="translate(-1605.463 605.7)" fill="#fff"/>
    <path id="Trazado_147" data-name="Trazado 147" d="M1598.846-461.565c1.058.922,2.181,1.842,3.238,2.834a48.5,48.5,0,0,1,7.873,9.128,11.253,11.253,0,0,1,1.694,3.758,2.5,2.5,0,0,1-.933,2.687,19.074,19.074,0,0,1-23.854.064,2.641,2.641,0,0,1-.971-3.012,12.906,12.906,0,0,1,1.984-4.03,52.862,52.862,0,0,1,10.779-11.35A1.225,1.225,0,0,1,1598.846-461.565Z" transform="translate(-1579.853 476.744)" fill="#fff"/>
    <path id="Trazado_148" data-name="Trazado 148" d="M1498.568-179.806a26.8,26.8,0,0,1,2.192,1.634c2.533,2.31,2.175,8.1-2.461,9.7a11.249,11.249,0,0,1-3.668.572c-3.4.012-6.8.006-10.2,0-.1,0-.2-.019-.357-.035V-178h-5.114c.37-.513.665-.93.969-1.341.384-.52.674-1.231,1.192-1.5a4.717,4.717,0,0,1,1.91-.1c.314-.006.628,0,1.006,0v-9.591a3.041,3.041,0,0,1,.355-.048c3.505,0,7.011-.037,10.515.042a8.993,8.993,0,0,1,3.007.628,5.142,5.142,0,0,1,3.4,4.538,5.356,5.356,0,0,1-2.5,5.408Zm-11.03,1.774v7.1c.135.011.237.025.339.025,2.243,0,4.487.021,6.729-.017a7,7,0,0,0,1.908-.307,3.13,3.13,0,0,0,2.287-3.557,3,3,0,0,0-2.607-3.038,20.35,20.35,0,0,0-3.188-.2C1491.2-178.053,1489.4-178.031,1487.537-178.031Zm-.006-2.856h.543c1.892,0,3.785.007,5.677,0a10.221,10.221,0,0,0,1.465-.106,3.058,3.058,0,0,0,2.744-3.186,2.985,2.985,0,0,0-2.522-3.294,6.679,6.679,0,0,0-1.355-.137c-2.032-.014-4.065-.007-6.1-.005-.151,0-.3.019-.453.029Z" transform="translate(-1417.217 198.141)" fill="#fff"/>
    <path id="Trazado_149" data-name="Trazado 149" d="M1711.737-183.736a13.13,13.13,0,0,1,1.309-6.05,10.115,10.115,0,0,1,8.781-5.765,12.391,12.391,0,0,1,5.527.748,9.546,9.546,0,0,1,5.451,5.331,14.046,14.046,0,0,1,.244,10.855,9.926,9.926,0,0,1-9.312,6.692,10.963,10.963,0,0,1-7.8-2.206,11.075,11.075,0,0,1-4.129-8.135C1711.765-182.754,1711.759-183.246,1711.737-183.736Zm18.7.066c-.109-.92-.162-1.85-.336-2.758a7.1,7.1,0,0,0-6.911-6.058,7.108,7.108,0,0,0-7.387,5.342,12.624,12.624,0,0,0-.327,5.359c.475,3.58,3.058,7.17,8.177,6.736a6.736,6.736,0,0,0,4.818-2.47A9.794,9.794,0,0,0,1730.432-183.669Z" transform="translate(-1625.479 202.618)" fill="#fff"/>
    <path id="Trazado_150" data-name="Trazado 150" d="M1309.813-167.925c.181-.255.287-.405.4-.555q3.918-5.4,7.845-10.8a.662.662,0,0,0,.011-.942c-2.409-3.294-4.8-6.6-7.188-9.91-.091-.126-.174-.257-.3-.44a4.007,4.007,0,0,1,.427-.051c.964,0,1.928.012,2.892-.009a.826.826,0,0,1,.779.389c1.737,2.418,3.493,4.823,5.244,7.231.133.183.27.363.438.588.131-.164.25-.3.357-.447q2.673-3.676,5.336-7.359a.83.83,0,0,1,.773-.4c1.083.024,2.166.009,3.388.009l-7.908,10.869,8.54,11.769a3.965,3.965,0,0,1-.436.055c-.947,0-1.894-.016-2.839.011a.911.911,0,0,1-.867-.433c-1.978-2.763-3.977-5.51-5.97-8.262-.1-.141-.21-.278-.36-.476-.142.184-.266.338-.383.5q-3,4.118-6,8.242a.92.92,0,0,1-.869.432C1312.061-167.942,1311-167.925,1309.813-167.925Z" transform="translate(-1265.883 198.176)" fill="#fff"/>
    <path id="Trazado_151" data-name="Trazado 151" d="M1533.547-530.017a16.623,16.623,0,0,1-3.149-6.131,18.751,18.751,0,0,1,4.382-18.3,1.479,1.479,0,0,1,1.646-.463,8.494,8.494,0,0,1,3.125,1.681c1.325,1.057,2.593,2.184,3.891,3.286a68.541,68.541,0,0,0-6.835,9.833,25.429,25.429,0,0,0-3.025,7.178A6.49,6.49,0,0,0,1533.547-530.017Z" transform="translate(-1529.635 560.33)" fill="#fff"/>
    <path id="Trazado_152" data-name="Trazado 152" d="M1918.926-177.094c-.16.212-.3.388-.426.568q-2.958,4.087-5.908,8.178a.872.872,0,0,1-.815.429c-1.079-.027-2.16-.009-3.356-.009.178-.251.284-.4.393-.552q3.936-5.422,7.879-10.839a.6.6,0,0,0,.01-.857q-3.625-4.933-7.215-9.893c-.11-.152-.212-.309-.378-.551,1.287,0,2.487-.012,3.685.016.142,0,.308.2.413.345q2.7,3.691,5.381,7.392c.1.139.208.273.339.444.132-.169.24-.3.339-.435q2.673-3.677,5.337-7.36a.875.875,0,0,1,.823-.414c1.068.026,2.137.009,3.322.009-.145.215-.24.364-.344.507q-3.617,4.972-7.243,9.937a.6.6,0,0,0,0,.853q3.97,5.4,7.908,10.818c.113.155.22.313.378.538-.2.018-.344.041-.488.041-.947,0-1.893-.012-2.84.009a.833.833,0,0,1-.782-.39q-3.016-4.174-6.062-8.327C1919.177-176.777,1919.068-176.91,1918.926-177.094Z" transform="translate(-1801.45 198.181)" fill="#fff"/>
    <path id="Trazado_153" data-name="Trazado 153" d="M1767.812-530.092c.479-2.7-.492-4.991-1.547-7.236a60.915,60.915,0,0,0-7.7-11.989c-.183-.23-.371-.457-.581-.715a24.812,24.812,0,0,1,6.017-4.653,6.574,6.574,0,0,1,.631-.259,1.7,1.7,0,0,1,2.093.512,18.763,18.763,0,0,1,4.989,13.64,18.548,18.548,0,0,1-3.523,10.22C1768.1-530.434,1767.983-530.307,1767.812-530.092Z" transform="translate(-1733.938 560.431)" fill="#fff"/>
  </g>
</svg>
