<svg xmlns="http://www.w3.org/2000/svg" width="157.607" height="32.717" viewBox="0 0 157.607 32.717">
  <g id="Grupo_26" data-name="Grupo 26" transform="translate(0 0)" opacity="0.57">
    <path id="Trazado_136" data-name="Trazado 136" d="M1222.543,285.966q.01,16.322.019,32.645h-46.976c0-10.529.012-21.057-.021-31.586,0-.894.207-1.133,1.128-1.131q22.375.047,44.75.024C1221.81,285.918,1222.177,285.949,1222.543,285.966ZM1178.6,302.139c0,4.118.035,8.237-.027,12.354-.014.927.276,1.111,1.12,1.063,1.233-.07,2.475-.052,3.711,0,.659.026.846-.174.834-.833-.041-2.357.01-4.716-.033-7.073-.012-.668.2-.821.836-.812a45.1,45.1,0,0,0,5.71-.171,7.126,7.126,0,0,0,6.524-5.446,14.613,14.613,0,0,0,.294-5.932,6.878,6.878,0,0,0-6.8-6.233c-3.741-.257-7.489-.078-11.232-.167-.839-.02-.958.272-.952,1C1178.614,293.969,1178.6,298.054,1178.6,302.139Zm19.888-.179a34.057,34.057,0,0,0,.408,5.367c.66,3.873,2.47,6.866,6.525,7.984a16.644,16.644,0,0,0,7.652.2A7.771,7.771,0,0,0,1219.04,311c.219-.485.232-.734-.294-1-.951-.479-1.861-1.039-2.788-1.565-1.325-.753-1.314-.745-2.231.44-1.421,1.837-3.383,2.131-5.5,1.755a4.063,4.063,0,0,1-3.419-3.459,21.864,21.864,0,0,1,.086-9.769,3.958,3.958,0,0,1,2.663-2.994c2.1-.715,5.563-.36,6.561,2.241.137.358.312.425.665.212,1.427-.859,2.858-1.711,4.314-2.52.492-.273.333-.533.147-.867a8.64,8.64,0,0,0-5.345-4.356,16.049,16.049,0,0,0-7.049-.363,8.7,8.7,0,0,0-7.618,6.907A28.206,28.206,0,0,0,1198.485,301.96Z" transform="translate(-1175.566 -285.894)" fill="#fff"/>
    <path id="Trazado_137" data-name="Trazado 137" d="M1970.337,327.3c1.238-3.975,2.465-7.911,3.69-11.847.413-1.329.829-2.656,1.225-3.99.142-.48.3-.767.93-.747,1.938.062,3.879.039,5.819.011.516-.008.672.124.671.655q-.026,12.654,0,25.308c0,.616-.245.7-.763.685-1.27-.028-2.543-.052-3.812.007-.715.033-.877-.2-.876-.884,0-4.749-.037-9.5-.064-14.248a1.435,1.435,0,0,0-.23-.913c-.1.313-.2.625-.3.939-1.48,4.743-2.969,9.484-4.427,14.234-.193.629-.44.956-1.167.87-.918-.108-2.072.352-2.712-.18-.589-.489-.657-1.608-.933-2.457-1.417-4.371-2.827-8.744-4.429-13.117,0,.265,0,.531,0,.8-.055,4.683-.133,9.365-.145,14.048,0,.773-.226.958-.956.912a23.494,23.494,0,0,0-3.008,0c-.747.049-.953-.168-.953-.926,0-5.048-.061-10.1-.093-15.145-.021-3.255-.009-6.51-.053-9.764-.008-.632.131-.844.807-.827,1.905.049,3.813.055,5.718,0,.671-.02.908.223,1.086.811,1.527,5.041,3.081,10.074,4.623,15.11A1.061,1.061,0,0,0,1970.337,327.3Z" transform="translate(-1863.592 -307.731)" fill="#fff"/>
    <path id="Trazado_138" data-name="Trazado 138" d="M1606.562,320.453c1.84,0,3.679-.005,5.519.006.289,0,.7-.172.679.421-.1,2.718.035,5.462-.7,8.115-1.154,4.16-3.849,6.358-8.213,6.863a17.483,17.483,0,0,1-5.394-.141,8.611,8.611,0,0,1-7.256-7.3,30.2,30.2,0,0,1,.062-12.268c1.02-4.619,4.244-7.094,9.007-7.269a14.625,14.625,0,0,1,6.6.783,8.469,8.469,0,0,1,4.387,4.03c.2.41.177.6-.246.832q-2.021,1.092-4,2.267c-.425.253-.633.141-.878-.216-1.449-2.1-3.511-2.607-5.9-2.154a3.937,3.937,0,0,0-3.4,3.435,30.213,30.213,0,0,0-.147,8.835,5.025,5.025,0,0,0,7.488,3.765,6.059,6.059,0,0,0,2.742-5.3c-.087-.516-.427-.324-.671-.326-1.739-.017-3.479-.04-5.217.008-.632.017-.8-.163-.768-.773a29.676,29.676,0,0,0,0-2.988c-.027-.552.185-.652.683-.645C1602.816,320.468,1604.689,320.453,1606.562,320.453Z" transform="translate(-1540.636 -306.077)" fill="#fff"/>
    <path id="Trazado_139" data-name="Trazado 139" d="M2346.539,337.465c-1.816,0-3.551-.022-5.285.012-.572.011-.637-.391-.784-.738-1.053-2.47-2.115-4.936-3.126-7.422a1.011,1.011,0,0,0-1.181-.757c-.825.072-1.91-.252-2.418.16-.537.436-.154,1.554-.175,2.373-.048,1.826-.081,3.654-.063,5.481.007.669-.155.939-.887.907-1.336-.06-2.676-.04-4.013-.006-.534.014-.672-.163-.671-.678q.026-12.657.008-25.315c0-.53.153-.667.671-.657,3.778.076,7.559-.111,11.334.185,4.232.333,6.729,2.892,6.858,7.094a23.064,23.064,0,0,1-.188,3.878,7.76,7.76,0,0,1-3.392,5.414c-.525.372-.534.673-.308,1.2,1.205,2.836,2.375,5.687,3.556,8.534A2.578,2.578,0,0,1,2346.539,337.465Zm-12.967-17.756c0,1.095.023,2.19-.01,3.284-.014.474.122.625.61.614,1.469-.035,2.941.015,4.409-.034a2.53,2.53,0,0,0,2.6-2.276,8.77,8.77,0,0,0-.006-3.07,2.536,2.536,0,0,0-2.8-2.394c-1.4-.025-2.806.012-4.208-.022-.49-.012-.623.143-.609.615C2333.594,317.519,2333.571,318.615,2333.571,319.709Z" transform="translate(-2189.209 -307.825)" fill="#fff"/>
    <path id="Trazado_140" data-name="Trazado 140" d="M2177.9,324.026c0-4.119.015-8.239-.014-12.358,0-.676.058-.964.883-.956,4.984.049,9.969.041,14.953.006.73-.005.887.21.854.885a31.941,31.941,0,0,0,0,3.487c.044.732-.218.855-.892.847-3.077-.037-6.156.018-9.232-.039-.829-.015-.991.254-.951.992a24.937,24.937,0,0,1-.005,3.286c-.066.834.265.953,1,.943,2.843-.039,5.687.007,8.53-.032.7-.009,1.012.088.952.891a22.292,22.292,0,0,0,0,3.385c.065.841-.276.948-1,.939-2.877-.037-5.754,0-8.631-.028-.614-.006-.875.095-.845.791.062,1.426.058,2.858,0,4.284-.028.71.113.954.9.94,3.11-.055,6.222-.006,9.333-.036.623-.006.876.108.839.8-.063,1.193-.043,2.392-.006,3.587.017.544-.115.744-.709.741-5.018-.023-10.036-.032-15.054.007-.774.006-.772-.35-.771-.9.011-4.153.006-8.305.006-12.458Z" transform="translate(-2057.228 -307.723)" fill="#fff"/>
    <path id="Trazado_141" data-name="Trazado 141" d="M1775.459,310.57c1,0,2.257-.366,2.913.1s.727,1.766,1.02,2.71c2.351,7.594,4.685,15.193,7.056,22.781.241.772.168,1.022-.71.975-1.3-.071-2.609-.052-3.911,0-.631.023-.951-.128-1.122-.783-.289-1.108-.253-2.646-1.087-3.175s-2.264-.149-3.432-.155c-1.471-.007-2.945.049-4.413-.023-.73-.036-.991.228-1.126.883-.173.842-.451,1.662-.658,2.5-.123.5-.3.788-.924.759-1.335-.062-2.675-.037-4.012-.01-.556.011-.8-.07-.6-.713q3.888-12.683,7.729-25.38a.647.647,0,0,1,.769-.551c.835.025,1.672.007,2.508.007Zm-3.03,17.208h5.8l-2.746-9.439Z" transform="translate(-1693.501 -307.48)" fill="#fff"/>
    <path id="Trazado_142" data-name="Trazado 142" d="M2477.684,316.315c-.077.045-.119.091-.16.089a1.881,1.881,0,0,1-.274-.047c.041-.029.081-.08.123-.082A2.113,2.113,0,0,1,2477.684,316.315Z" transform="translate(-2320.551 -312.618)" fill="#fff"/>
    <path id="Trazado_143" data-name="Trazado 143" d="M2477.176,319.455c-.1-.048-.268-.074-.3-.15-.061-.166.115-.1.174-.094.176.026.314.092.1.275Z" transform="translate(-2320.215 -315.184)" fill="#fff"/>
    <path id="Trazado_144" data-name="Trazado 144" d="M2479.289,320.941c.044-.111.118-.128.187-.035.033.045.02.123.029.186-.065-.063-.129-.126-.2-.186C2479.306,320.909,2479.289,320.941,2479.289,320.941Z" transform="translate(-2322.345 -316.638)" fill="#fff"/>
    <path id="Trazado_145" data-name="Trazado 145" d="M1247.374,356.03c0-1.126.021-2.253-.01-3.379-.013-.481.146-.625.623-.613,1.434.036,2.87-.015,4.3.053a2.7,2.7,0,0,1,2.8,2.461,3.793,3.793,0,0,1,.085.488c.293,4.38-1.042,5.132-4.537,5.033q-1.35-.038-2.7,0c-.442.014-.573-.141-.564-.57C1247.39,358.349,1247.374,357.189,1247.374,356.03Z" transform="translate(-1238.719 -344.075)" fill="#fff"/>
  </g>
</svg>
