<svg xmlns="http://www.w3.org/2000/svg" width="162.578" height="48.022" viewBox="0 0 162.578 48.022">
  <g id="Grupo_166" data-name="Grupo 166" opacity="0.57">
    <path id="Trazado_146" data-name="Trazado 146" d="M1628.962-605.7c1.069.177,2.145.319,3.206.536a23.24,23.24,0,0,1,7.15,2.836c.09.053.169.125.412.307-.423-.036-.667-.055-.91-.077a15.205,15.205,0,0,0-7.074,1.324c-1.42.567-2.793,1.255-4.163,1.94a.954.954,0,0,1-1.029.006,24.9,24.9,0,0,0-8.709-3.18,28.357,28.357,0,0,0-3.455-.022c.325-.214.5-.344.694-.454a23.1,23.1,0,0,1,9.692-3.1,2.782,2.782,0,0,0,.445-.111Z" transform="translate(-1603.052 605.7)" fill="#fff"/>
    <path id="Trazado_147" data-name="Trazado 147" d="M1602.38-461.565c1.343,1.171,2.771,2.339,4.112,3.6a61.6,61.6,0,0,1,10,11.594,14.3,14.3,0,0,1,2.152,4.773,3.175,3.175,0,0,1-1.185,3.414,24.227,24.227,0,0,1-30.3.081,3.354,3.354,0,0,1-1.233-3.826,16.4,16.4,0,0,1,2.52-5.119,67.142,67.142,0,0,1,13.69-14.416A1.56,1.56,0,0,1,1602.38-461.565Z" transform="translate(-1578.256 480.845)" fill="#fff"/>
    <path id="Trazado_148" data-name="Trazado 148" d="M1503.865-176.892a34.042,34.042,0,0,1,2.785,2.076c3.218,2.934,2.763,10.291-3.125,12.324a14.289,14.289,0,0,1-4.659.727c-4.318.015-8.637.007-12.956.006-.13,0-.26-.025-.454-.044v-12.8h-6.5c.47-.651.845-1.182,1.231-1.7.488-.661.857-1.563,1.514-1.9a5.991,5.991,0,0,1,2.426-.125c.4-.007.8,0,1.278,0v-12.182a3.877,3.877,0,0,1,.452-.061c4.452,0,8.906-.047,13.356.054a11.423,11.423,0,0,1,3.819.8,6.531,6.531,0,0,1,4.32,5.765,6.8,6.8,0,0,1-3.179,6.869Zm-14.01,2.254v9.022c.172.013.3.032.431.032,2.849,0,5.7.026,8.547-.021a8.892,8.892,0,0,0,2.424-.389c2.082-.637,3.022-2.156,2.905-4.518a3.81,3.81,0,0,0-3.311-3.858,25.849,25.849,0,0,0-4.05-.257C1494.512-174.666,1492.222-174.638,1489.854-174.638Zm-.007-3.628h.689c2.4,0,4.807.009,7.211-.006a12.985,12.985,0,0,0,1.861-.135,3.884,3.884,0,0,0,3.484-4.047,3.791,3.791,0,0,0-3.2-4.183,8.482,8.482,0,0,0-1.721-.174c-2.581-.018-5.163-.009-7.745-.007-.192,0-.385.024-.576.036Z" transform="translate(-1400.536 200.181)" fill="#fff"/>
    <path id="Trazado_149" data-name="Trazado 149" d="M1711.737-180.532a16.679,16.679,0,0,1,1.662-7.685,12.848,12.848,0,0,1,11.154-7.322,15.739,15.739,0,0,1,7.02.95,12.126,12.126,0,0,1,6.924,6.771,17.841,17.841,0,0,1,.309,13.787c-2.073,5.318-6.109,8.168-11.828,8.5a13.925,13.925,0,0,1-9.91-2.8,14.066,14.066,0,0,1-5.244-10.333C1711.773-179.286,1711.765-179.91,1711.737-180.532Zm23.746.084c-.138-1.168-.206-2.35-.427-3.5a9.018,9.018,0,0,0-8.778-7.694,9.028,9.028,0,0,0-9.383,6.785,16.04,16.04,0,0,0-.415,6.807c.6,4.547,3.884,9.107,10.386,8.555a8.556,8.556,0,0,0,6.12-3.137C1734.859-174.9,1735.37-177.6,1735.483-180.448Z" transform="translate(-1602.176 204.515)" fill="#fff"/>
    <path id="Trazado_150" data-name="Trazado 150" d="M1309.813-161.791c.231-.323.365-.515.5-.7q4.977-6.861,9.965-13.713a.842.842,0,0,0,.014-1.2c-3.06-4.184-6.091-8.388-9.13-12.587-.115-.16-.221-.326-.378-.559a5.087,5.087,0,0,1,.542-.064c1.224,0,2.449.015,3.673-.012a1.049,1.049,0,0,1,.989.495c2.207,3.071,4.436,6.126,6.66,9.185.169.233.343.461.556.747.167-.208.318-.382.453-.567q3.4-4.669,6.778-9.347a1.054,1.054,0,0,1,.982-.514c1.375.031,2.751.011,4.3.011l-10.045,13.806,10.847,14.948a5.037,5.037,0,0,1-.554.07c-1.2.005-2.4-.02-3.606.014a1.157,1.157,0,0,1-1.1-.55c-2.513-3.509-5.051-7-7.583-10.494-.13-.179-.267-.353-.457-.6-.18.233-.339.429-.487.632q-3.815,5.231-7.617,10.469a1.168,1.168,0,0,1-1.1.549C1312.668-161.813,1311.319-161.791,1309.813-161.791Z" transform="translate(-1254.015 200.215)" fill="#fff"/>
    <path id="Trazado_151" data-name="Trazado 151" d="M1534.6-523.27a21.115,21.115,0,0,1-4-7.788c-2.334-8.736-.446-16.484,5.566-23.247a1.879,1.879,0,0,1,2.09-.588,10.79,10.79,0,0,1,3.97,2.135c1.683,1.342,3.294,2.774,4.943,4.174a87.066,87.066,0,0,0-8.681,12.49,32.3,32.3,0,0,0-3.842,9.118A8.243,8.243,0,0,0,1534.6-523.27Z" transform="translate(-1529.635 561.773)" fill="#fff"/>
    <path id="Trazado_152" data-name="Trazado 152" d="M1921.764-173.436c-.2.27-.376.492-.541.721q-3.757,5.191-7.5,10.388a1.108,1.108,0,0,1-1.035.544c-1.371-.035-2.744-.012-4.262-.012.226-.319.361-.511.5-.7q5-6.887,10.008-13.767a.766.766,0,0,0,.012-1.089q-4.6-6.266-9.164-12.565c-.14-.192-.27-.392-.481-.7,1.635,0,3.158-.015,4.681.02.18,0,.391.255.524.438q3.426,4.689,6.835,9.39c.128.176.264.346.43.563.168-.215.305-.38.431-.553q3.395-4.67,6.779-9.348a1.111,1.111,0,0,1,1.045-.526c1.356.033,2.714.012,4.219.012-.184.273-.305.462-.437.644q-4.594,6.315-9.2,12.622a.759.759,0,0,0,0,1.084q5.043,6.856,10.044,13.74c.144.2.28.4.48.684-.255.022-.437.052-.62.052-1.2,0-2.4-.015-3.607.011a1.058,1.058,0,0,1-.993-.5q-3.831-5.3-7.7-10.577C1922.082-173.034,1921.945-173.2,1921.764-173.436Z" transform="translate(-1772.551 200.219)" fill="#fff"/>
    <path id="Trazado_153" data-name="Trazado 153" d="M1770.467-523.335c.608-3.426-.625-6.339-1.964-9.19a77.379,77.379,0,0,0-9.778-15.228c-.233-.292-.471-.58-.738-.908a31.519,31.519,0,0,1,7.643-5.911,8.388,8.388,0,0,1,.8-.329,2.164,2.164,0,0,1,2.659.651,23.833,23.833,0,0,1,6.336,17.324,23.559,23.559,0,0,1-4.475,12.981C1770.826-523.77,1770.684-523.608,1770.467-523.335Z" transform="translate(-1727.441 561.87)" fill="#fff"/>
  </g>
</svg>
