<svg xmlns="http://www.w3.org/2000/svg" width="83.597" height="64.507" viewBox="0 0 83.597 64.507">
  <g id="Grupo_167" data-name="Grupo 167" transform="translate(0 0)" opacity="0.57">
    <path id="Trazado_123" data-name="Trazado 123" d="M2838.663-725.742l-13.6-4.315v-60.192c.574.116,1.122.22,1.665.338a167.762,167.762,0,0,1,16.3,4.548,39.872,39.872,0,0,1,7.883,3.388,15.67,15.67,0,0,1,6.281,6.276,18.2,18.2,0,0,1,1.812,6.261,32.657,32.657,0,0,1,.2,5.694,15.069,15.069,0,0,1-1.726,6.67,7.919,7.919,0,0,1-5.954,4.228,11.006,11.006,0,0,1-5.164-.55c-.665-.221-1.3-.518-1.963-.76a.43.43,0,0,1-.311-.488q.013-8.79,0-17.579c0-1.154-.009-2.309-.062-3.461a5.235,5.235,0,0,0-.747-2.6,3.113,3.113,0,0,0-2.266-1.433,1.633,1.633,0,0,0-1.667.778,4.121,4.121,0,0,0-.657,2.079c-.029.35-.028.7-.028,1.055q0,24.77,0,49.539Z" transform="translate(-2793.79 790.249)" fill="#fff"/>
    <path id="Trazado_124" data-name="Trazado 124" d="M3070.222-176.411v-.322c0-2.506,0-5.013,0-7.519a.36.36,0,0,1,.295-.412,49.094,49.094,0,0,1,10.01-2.24,42.768,42.768,0,0,1,17.921,1.6,22.288,22.288,0,0,1,5.412,2.21,6.282,6.282,0,0,1,1.918,1.734,2.9,2.9,0,0,1-.049,3.531,7.988,7.988,0,0,1-2.252,1.955,26,26,0,0,1-5.4,2.422q-12.77,4.575-25.537,9.166c-.752.27-1.506.538-2.3.821-.007-.143-.018-.257-.018-.371,0-2.385,0-4.771-.007-7.156a.39.39,0,0,1,.3-.447q10.674-3.79,21.338-7.6c.585-.209,1.132-.523,1.7-.79a.609.609,0,0,0,.108-.076c.865-.66.8-1.36-.183-1.831a7.472,7.472,0,0,0-3.018-.6,17.433,17.433,0,0,0-6.613,1.133c-4.428,1.6-8.878,3.139-13.32,4.7C3070.438-176.468,3070.344-176.446,3070.222-176.411Z" transform="translate(-3022.753 227.043)" fill="#fff"/>
    <path id="Trazado_125" data-name="Trazado 125" d="M2380.01-238.893v.356c0,2.4,0,4.793.008,7.189a.411.411,0,0,1-.326.466q-6.764,2.406-13.517,4.835a17.289,17.289,0,0,0-1.578.732,1.285,1.285,0,0,0-.265.194c-.736.624-.674,1.257.182,1.7a6.294,6.294,0,0,0,2.447.6,16.732,16.732,0,0,0,7.578-1.2c1.7-.664,3.421-1.253,5.134-1.875.1-.036.2-.066.326-.105v7.058c-.859.135-1.709.286-2.565.4a43.769,43.769,0,0,1-6.149.384,45.271,45.271,0,0,1-13.6-2.248,15.7,15.7,0,0,1-3.854-1.669,5.9,5.9,0,0,1-1.972-1.954,3.1,3.1,0,0,1,.943-4.176,17.7,17.7,0,0,1,4.506-2.509c2.719-1.06,5.465-2.051,8.212-3.037,4.689-1.684,9.387-3.341,14.082-5.009C2379.723-238.805,2379.848-238.841,2380.01-238.893Z" transform="translate(-2351.41 275.299)" fill="#fff"/>
  </g>
</svg>
