<svg xmlns="http://www.w3.org/2000/svg" width="175.296" height="41.605" viewBox="0 0 175.296 41.605">
  <g id="Grupo_169" data-name="Grupo 169" opacity="0.57">
    <path id="Trazado_126" data-name="Trazado 126" d="M1043.568,957.877q-34.717,0-69.435.009a17.659,17.659,0,0,1-8.617-2.006,17.473,17.473,0,0,1-9.47-13.642,15.964,15.964,0,0,1-.135-2.023c-.017-2.131-.022-4.263,0-6.394a17.784,17.784,0,0,1,14.565-17.211,19.088,19.088,0,0,1,3.286-.3q69.7-.022,139.395-.03a17.971,17.971,0,0,1,17.221,12.575,15.877,15.877,0,0,1,.756,4.508c.021,2.657.161,5.329-.065,7.968-.627,7.343-4.485,12.427-11.231,15.32a15.633,15.633,0,0,1-6.08,1.217c-.4,0-.8.007-1.2.007Zm-.013-2.28q34.717,0,69.433-.005a21.752,21.752,0,0,0,2.475-.126,15.515,15.515,0,0,0,13.639-15.308c.016-2.081.056-4.164-.01-6.243a15.21,15.21,0,0,0-7.842-13.292,15.472,15.472,0,0,0-8.131-2.055q-61.722.016-123.445.007c-5.316,0-10.632-.008-15.948.008a18.1,18.1,0,0,0-2.622.176A15.471,15.471,0,0,0,958,933.45c-.08,2.4-.087,4.816,0,7.22a14.991,14.991,0,0,0,6.449,12.01,15.358,15.358,0,0,0,9.377,2.924Q1008.689,955.585,1043.556,955.6Z" transform="translate(-955.896 -916.281)" fill="#fff"/>
    <path id="Trazado_127" data-name="Trazado 127" d="M1125.519,1034.146h-5.38v-19.773c.237-.019.453-.052.67-.052,1.5,0,3.009.022,4.513-.016a1.123,1.123,0,0,1,1.083.607q3.853,5.881,7.737,11.741a2.173,2.173,0,0,0,.3.433c.192.175.418.431.633.435.352.007.44-.36.483-.662a5.4,5.4,0,0,0,.034-.75q0-5.416,0-10.832v-.918h5.371v19.783c-.214.019-.429.053-.643.054-1.153.005-2.308-.026-3.46.015a1.176,1.176,0,0,1-1.153-.614q-4.161-6.308-8.364-12.589a5.781,5.781,0,0,0-.493-.662.729.729,0,0,0-.805-.27.758.758,0,0,0-.494.694,5.825,5.825,0,0,0-.026.751q0,5.867,0,11.734Z" transform="translate(-1104.31 -1004.858)" fill="#fff"/>
    <path id="Trazado_128" data-name="Trazado 128" d="M2255.2,1021.975v-7.167h5.342v19.8h-5.306c-.04-.268-.078-.525-.125-.846-.288.147-.53.264-.766.392a8.77,8.77,0,0,1-7,.509,4.458,4.458,0,0,1-2.986-2.959,11.276,11.276,0,0,1-.216-6.949,5.359,5.359,0,0,1,4.586-3.912,8.2,8.2,0,0,1,6.138,1.046A1.6,1.6,0,0,0,2255.2,1021.975Zm-.029,6.031c0-1.076-.014-2.153.007-3.229a1.165,1.165,0,0,0-.385-.931,3.017,3.017,0,0,0-3.251-.754,2.631,2.631,0,0,0-1.773,2.622c-.049,1.375-.031,2.754,0,4.13a3.7,3.7,0,0,0,.822,2.292,2.037,2.037,0,0,0,2.4.77,12.306,12.306,0,0,0,1.717-.891.913.913,0,0,0,.477-.93C2255.15,1030.06,2255.172,1029.033,2255.172,1028.006Z" transform="translate(-2119.586 -1005.313)" fill="#fff"/>
    <path id="Trazado_129" data-name="Trazado 129" d="M2035.538,1085.678h-5.294c-.154-.55-.209-12.127-.069-13.345a33.249,33.249,0,0,1,5.328-.031c.02.332.039.676.062,1.066a.933.933,0,0,0,.269-.073,12.385,12.385,0,0,1,5.71-1.921,5.969,5.969,0,0,1,5.13,2,3.81,3.81,0,0,1,1.068,2.725c-.021,2.957-.007,5.914-.009,8.871,0,.221-.018.442-.03.711h-5.349c-.013-.274-.037-.537-.037-.8,0-2.305,0-4.611-.008-6.916a5.975,5.975,0,0,0-.133-1.339,3.327,3.327,0,0,0-3.593-2.643,3.24,3.24,0,0,0-3.029,3.172c-.026.324-.016.651-.016.977q0,3.346,0,6.691Z" transform="translate(-1926.567 -1056.397)" fill="#fff"/>
    <path id="Trazado_130" data-name="Trazado 130" d="M1492.853,1085.867h-5.243c-.168-.515-.223-12.3-.057-13.385h5.256c.027.371.054.73.085,1.164.383-.226.691-.427,1.017-.595a12.856,12.856,0,0,1,5.093-1.467,5.949,5.949,0,0,1,5.014,2.105,3.631,3.631,0,0,1,.98,2.46q0,4.664,0,9.328c0,.1-.017.2-.036.4-1.762.066-3.521.013-5.36.033v-.9c0-2.307.019-4.614-.013-6.92a5.571,5.571,0,0,0-.29-1.763,3.257,3.257,0,0,0-3.589-2.111,3.121,3.121,0,0,0-2.763,2.751,7.771,7.771,0,0,0-.088,1.2c-.008,2.281,0,4.563,0,6.845Z" transform="translate(-1436.224 -1056.603)" fill="#fff"/>
    <path id="Trazado_131" data-name="Trazado 131" d="M2457.524,1086.633a10.155,10.155,0,0,1-5.937-1.873,8.914,8.914,0,0,1-1.683-1.6,6.2,6.2,0,0,1,.01-7.909,8,8,0,0,1,2.987-2.351,10.617,10.617,0,0,1,9.432.1,7.984,7.984,0,0,1,2.643,2.075,6.255,6.255,0,0,1-.025,8.324,9.017,9.017,0,0,1-5.268,2.967C2458.975,1086.513,2458.245,1086.549,2457.524,1086.633Zm-2.7-7.334c0,1.051-.014,2.1,0,3.153a2.7,2.7,0,1,0,5.393.014q.043-3.153,0-6.306a2.7,2.7,0,1,0-5.393.061C2454.811,1077.247,2454.823,1078.273,2454.823,1079.3Z" transform="translate(-2304.635 -1056.856)" fill="#fff"/>
    <path id="Trazado_132" data-name="Trazado 132" d="M1831.787,1079.375h-11.754c0,1.188-.07,2.292.017,3.383a2.64,2.64,0,0,0,2.841,2.416,2.688,2.688,0,0,0,2.525-2.678c.01-.324,0-.649,0-.961a34.971,34.971,0,0,1,5.84-.079c-.088.217-.156.424-.253.616a7.3,7.3,0,0,1-2.123,2.5,10.435,10.435,0,0,1-12.338-.038,8.52,8.52,0,0,1-1.69-1.793,6.112,6.112,0,0,1,.023-7.115,7.537,7.537,0,0,1,2.715-2.439,10.387,10.387,0,0,1,10.213-.019,7.042,7.042,0,0,1,3.682,4.446C1831.631,1078.135,1831.673,1078.683,1831.787,1079.375Zm-6.382-2.07c0-.536.032-.988-.007-1.433a2.683,2.683,0,0,0-5.267-.429,4.54,4.54,0,0,0-.055,1.862Z" transform="translate(-1731.05 -1056.844)" fill="#fff"/>
    <path id="Trazado_133" data-name="Trazado 133" d="M1693.869,1047.077v1.481c-1.274.043-2.542,0-3.915.03-.034.913-.012,1.805-.016,2.7s0,1.756,0,2.633v8.029a27.606,27.606,0,0,1-5.408.058v-13.416h-3.924v-1.556h3.892v-1.8c1.825-.09,3.587-.031,5.417-.043v1.784C1691.253,1047.122,1692.549,1046.949,1693.869,1047.077Z" transform="translate(-1610.761 -1032.755)" fill="#fff"/>
    <path id="Trazado_134" data-name="Trazado 134" d="M1384.143,1080.776h5.251c.154.531.21,12.186.063,13.406h-5.313Z" transform="translate(-1342.87 -1064.923)" fill="#fff"/>
    <path id="Trazado_135" data-name="Trazado 135" d="M1383.884,1019.044c-.022-.228-.048-.371-.049-.515,0-1.072,0-2.145,0-3.267h5.348V1019C1387.434,1019.091,1385.676,1019.013,1383.884,1019.044Z" transform="translate(-1342.59 -1005.723)" fill="#fff"/>
  </g>
</svg>
