<svg xmlns="http://www.w3.org/2000/svg" width="21.736" height="18.557" viewBox="0 0 21.736 18.557">
  <g id="Grupo_5" data-name="Grupo 5" transform="translate(-297.747 -195.29)">
    <path id="Trazado_10" data-name="Trazado 10" d="M308.613,213.839h-8.878a1.878,1.878,0,0,1-1.987-1.98q0-7.279,0-14.558a1.882,1.882,0,0,1,2.017-2.01h17.683a1.884,1.884,0,0,1,2.021,2.032c0,4.836-.008,9.672.012,14.508a1.961,1.961,0,0,1-2.017,2.016C314.516,213.823,311.564,213.839,308.613,213.839Zm-2.2-8.25a.8.8,0,0,1,.067-.12q1.225-1.432,2.45-2.863a.847.847,0,0,1,1.363-.16l7.343,5.613c.061.047.127.085.227.153V197.379c0-.449-.034-.483-.478-.483H299.83c-.434,0-.472.038-.472.463v10.555c.114-.109.18-.17.244-.233q1.8-1.8,3.594-3.6a.756.756,0,0,1,.669-.307,1.483,1.483,0,0,1,.6.257C305.109,204.53,305.739,205.049,306.414,205.589Zm3.37-1.52c-.868,1.013-1.716,2.006-2.568,3a.837.837,0,0,1-1.364.123c-.643-.517-1.288-1.03-1.936-1.547-.039.031-.066.049-.09.072q-2.176,2.174-4.346,4.353a.449.449,0,0,0-.1.283c-.01.471-.005.942,0,1.413,0,.443.006.449.442.449h17.66c.343,0,.371-.028.372-.369,0-.455-.008-.91,0-1.364a.425.425,0,0,0-.19-.392q-2.714-2.064-5.417-4.139Z" fill="#c0005a"/>
    <path id="Trazado_11" data-name="Trazado 11" d="M305.977,204.278a1.587,1.587,0,1,1,1.6-1.585A1.583,1.583,0,0,1,305.977,204.278Z" transform="translate(-2.396 -2.097)" fill="#c0005a"/>
  </g>
</svg>
