<svg id="Componente_16_20" data-name="Componente 16 – 20" xmlns="http://www.w3.org/2000/svg" width="21.145" height="18.005" viewBox="0 0 21.145 18.005">
  <g id="Grupo_133" data-name="Grupo 133">
    <path id="Trazado_503" data-name="Trazado 503" d="M69.091,220.072c.264-.273.482-.511.714-.734a5.812,5.812,0,0,1,9.86,3.483A5.688,5.688,0,0,1,78,227.579q-3.666,3.718-7.363,7.406a2.1,2.1,0,0,1-3.056,0q-3.619-3.625-7.226-7.262a6.009,6.009,0,0,1-.983-7.289,5.483,5.483,0,0,1,4.742-2.79,5.593,5.593,0,0,1,4.374,1.771C68.684,219.62,68.872,219.835,69.091,220.072Z" transform="translate(-58.554 -217.641)" fill="#e100ff"/>
  </g>
  <g id="Grupo_132" data-name="Grupo 132" opacity="0">
    <path id="Trazado_503-2" data-name="Trazado 503" d="M69.091,220.072c.264-.273.482-.511.714-.734a5.812,5.812,0,0,1,9.86,3.483A5.688,5.688,0,0,1,78,227.579q-3.666,3.718-7.363,7.406a2.1,2.1,0,0,1-3.056,0q-3.619-3.625-7.226-7.262a6.009,6.009,0,0,1-.983-7.289,5.483,5.483,0,0,1,4.742-2.79,5.593,5.593,0,0,1,4.374,1.771C68.684,219.62,68.872,219.835,69.091,220.072Zm-4.8-1.035a4.319,4.319,0,0,0-3.849,2.34,4.649,4.649,0,0,0,.908,5.347c2.4,2.433,4.814,4.845,7.225,7.263a.7.7,0,0,0,1.071,0c2.461-2.472,4.933-4.934,7.375-7.425a4.233,4.233,0,0,0,1.134-4.14,4.111,4.111,0,0,0-3.023-3.178,4.322,4.322,0,0,0-4.358,1.087c-.382.356-.73.747-1.1,1.121a.712.712,0,0,1-1.133.012c-.407-.4-.8-.821-1.22-1.216A4.366,4.366,0,0,0,64.291,219.037Z" transform="translate(-58.554 -217.641)" fill="#e100ff"/>
  </g>
</svg>
