<svg xmlns="http://www.w3.org/2000/svg" width="18.386" height="20.352" viewBox="0 0 18.386 20.352">
  <path id="Trazado_501" data-name="Trazado 501" d="M133.348,250a5.913,5.913,0,0,1-.632-.162,2.916,2.916,0,0,1-1.956-2.283c-.007-.032-.012-.065-.019-.1s-.012-.038-.026-.083h-.2c-1.259,0-2.517.01-3.775,0a2.294,2.294,0,0,1-.042-4.587c.371-.035.408-.074.408-.452,0-1.272-.026-2.544.006-3.815a6.4,6.4,0,0,1,3.96-6.021.514.514,0,0,0,.373-.59,2.21,2.21,0,0,1,2.241-2.26,2.238,2.238,0,0,1,2.221,2.291c0,.125-.018.25-.028.395.093.041.2.084.3.131a6.648,6.648,0,0,1,4.014,5.5,13.942,13.942,0,0,1,.043,1.627c.006.927,0,1.855,0,2.782,0,.322.053.379.372.405a2.355,2.355,0,0,1,2.217,1.884,2.293,2.293,0,0,1-2.228,2.707c-1.252.011-2.5,0-3.755,0h-.164a9.468,9.468,0,0,1-.461,1.143,2.834,2.834,0,0,1-2.078,1.444.69.69,0,0,0-.108.038Zm.325-3.937q3.418,0,6.836,0a.981.981,0,0,0,.122-1.958c-.151-.021-.306-.017-.453-.048a1.567,1.567,0,0,1-1.26-1.57q-.007-1.878,0-3.756a5.529,5.529,0,0,0-.286-1.815,5.227,5.227,0,0,0-10.211,1.452c-.014,1.371,0,2.742-.006,4.113a1.571,1.571,0,0,1-1.274,1.579c-.168.034-.344.027-.513.056a.976.976,0,0,0-.7,1.472,1.009,1.009,0,0,0,.925.477Q130.265,246.062,133.673,246.065Zm-1.591,1.322a1.615,1.615,0,0,0,3.168,0Zm.683-15.407h1.8a.845.845,0,0,0-.378-.858.92.92,0,0,0-1.028-.006A.845.845,0,0,0,132.765,231.98Z" transform="translate(-124.47 -229.649)" fill="#e100ff"/>
</svg>
