<svg xmlns="http://www.w3.org/2000/svg" xmlns:xlink="http://www.w3.org/1999/xlink" width="574.288" height="544.975" viewBox="0 0 574.288 544.975">
  <defs>
    <linearGradient id="linear-gradient" x1="0.866" y1="0.653" x2="2.17" y2="1.198" gradientUnits="objectBoundingBox">
      <stop offset="0" stop-color="#fff"/>
      <stop offset="1" stop-color="#dae7ec"/>
    </linearGradient>
    <linearGradient id="linear-gradient-2" x1="0.668" y1="0.683" x2="1.411" y2="1.429" xlink:href="#linear-gradient"/>
    <linearGradient id="linear-gradient-3" x1="0.084" y1="0.057" x2="1.037" y2="1.072" gradientUnits="objectBoundingBox">
      <stop offset="0" stop-color="#5e4c9c"/>
      <stop offset="0.232" stop-color="#8c4492"/>
      <stop offset="0.463" stop-color="#b33d8b"/>
      <stop offset="0.675" stop-color="#cf3885"/>
      <stop offset="0.861" stop-color="#e03682"/>
      <stop offset="1" stop-color="#e63581"/>
    </linearGradient>
    <linearGradient id="linear-gradient-4" x1="1.753" y1="0.746" x2="0.323" y2="0.322" xlink:href="#linear-gradient-3"/>
    <linearGradient id="linear-gradient-5" x1="0.449" y1="0.196" x2="0.575" y2="0.946" gradientUnits="objectBoundingBox">
      <stop offset="0" stop-color="#e63581"/>
      <stop offset="1" stop-color="#d12f79"/>
    </linearGradient>
    <linearGradient id="linear-gradient-6" x1="0.174" y1="-0.292" x2="0.715" y2="0.838" xlink:href="#linear-gradient"/>
    <linearGradient id="linear-gradient-7" x1="1.509" y1="0.867" x2="-0.824" y2="-0.016" gradientUnits="objectBoundingBox">
      <stop offset="0" stop-color="#0f1735"/>
      <stop offset="1" stop-color="#e63581"/>
    </linearGradient>
    <linearGradient id="linear-gradient-8" x1="0.006" y1="0.753" x2="1.045" y2="0.247" xlink:href="#linear-gradient-3"/>
    <linearGradient id="linear-gradient-9" x1="0.037" y1="0.419" x2="0.6" y2="0.594" xlink:href="#linear-gradient"/>
    <linearGradient id="linear-gradient-10" x1="0.394" y1="0.212" x2="0.741" y2="0.724" xlink:href="#linear-gradient"/>
    <linearGradient id="linear-gradient-11" x1="0.055" y1="0.351" x2="0.637" y2="0.549" gradientUnits="objectBoundingBox">
      <stop offset="0" stop-color="#fff"/>
      <stop offset="1" stop-color="#a8c5cd"/>
    </linearGradient>
    <linearGradient id="linear-gradient-12" x1="0.052" y1="0.366" x2="0.934" y2="0.683" xlink:href="#linear-gradient"/>
    <linearGradient id="linear-gradient-13" x1="1.029" y1="1.369" x2="0.123" y2="-0.318" xlink:href="#linear-gradient-7"/>
    <linearGradient id="linear-gradient-14" x1="1.028" y1="1.35" x2="0.151" y2="-0.28" xlink:href="#linear-gradient-3"/>
  </defs>
  <g id="Grupo_20" data-name="Grupo 20" transform="translate(-568.62 -41.966)">
    <g id="Grupo_17" data-name="Grupo 17" transform="translate(568.62 41.966)">
      <path id="Trazado_22" data-name="Trazado 22" d="M592.43,344.924A5.625,5.625,0,1,0,586.8,339.3,5.636,5.636,0,0,0,592.43,344.924Z" transform="translate(-563.021 47.846)" fill="#fff" fill-rule="evenodd"/>
      <path id="Trazado_23" data-name="Trazado 23" d="M685.361,354.176a5.625,5.625,0,1,0-5.625-5.625A5.635,5.635,0,0,0,685.361,354.176Z" transform="translate(-534.409 50.694)" fill="#fff" fill-rule="evenodd"/>
      <path id="Trazado_24" data-name="Trazado 24" d="M798.035,413.07a5.625,5.625,0,1,0-5.624-5.625A5.637,5.637,0,0,0,798.035,413.07Z" transform="translate(-499.719 68.827)" fill="#fff" fill-rule="evenodd"/>
      <path id="Trazado_25" data-name="Trazado 25" d="M898.026,209.489a5.625,5.625,0,1,0-5.627-5.625A5.635,5.635,0,0,0,898.026,209.489Z" transform="translate(-468.934 6.148)" fill="#fff" fill-rule="evenodd"/>
      <path id="Trazado_26" data-name="Trazado 26" d="M980.969,190.7a5.625,5.625,0,1,0-5.625-5.625A5.637,5.637,0,0,0,980.969,190.7Z" transform="translate(-443.396 0.362)" fill="#fff" fill-rule="evenodd"/>
      <path id="Trazado_27" data-name="Trazado 27" d="M697.993,216.879a5.625,5.625,0,1,0-5.624-5.625A5.636,5.636,0,0,0,697.993,216.879Z" transform="translate(-530.52 8.423)" fill="#fff" fill-rule="evenodd"/>
      <path id="Trazado_28" data-name="Trazado 28" d="M1002.774,148.246a2.983,2.983,0,0,1,2.115.876l.029.033a2.984,2.984,0,0,1-.029,4.2v0a2.994,2.994,0,1,1-2.114-5.112Zm1.4,1.6a1.978,1.978,0,1,0,0,2.8h0a1.983,1.983,0,0,0,.024-2.775Z" transform="translate(-435.874 -9.244)" fill="#fff" fill-rule="evenodd"/>
      <path id="Trazado_29" data-name="Trazado 29" d="M849.392,41.966a2.989,2.989,0,0,1,2.116.876l.029.033a2.987,2.987,0,0,1-.029,4.2h0a2.993,2.993,0,1,1-2.114-5.111Zm1.4,1.6a1.978,1.978,0,1,0,0,2.8v0a1.979,1.979,0,0,0,.023-2.774Z" transform="translate(-483.097 -41.966)" fill="#fff" fill-rule="evenodd"/>
      <path id="Trazado_30" data-name="Trazado 30" d="M604.221,163.946a2.981,2.981,0,0,1,2.117.878l.03.03a2.991,2.991,0,0,1-.03,4.2v0a2.994,2.994,0,1,1-2.116-5.113Zm1.4,1.6a1.978,1.978,0,1,0,0,2.8v0a1.98,1.98,0,0,0,.025-2.774Z" transform="translate(-558.58 -4.41)" fill="#fff" fill-rule="evenodd"/>
      <path id="Trazado_31" data-name="Trazado 31" d="M923.063,452.594a2.97,2.97,0,0,1,2.116.879l.029.03a2.986,2.986,0,0,1-.029,4.2h0a2.992,2.992,0,1,1-2.115-5.111Zm1.4,1.6a1.978,1.978,0,0,0-3.377,1.4,1.977,1.977,0,0,0,3.377,1.4h0a1.964,1.964,0,0,0,.578-1.4,1.988,1.988,0,0,0-.555-1.377Z" transform="translate(-460.415 84.459)" fill="#fff" fill-rule="evenodd"/>
      <path id="Trazado_32" data-name="Trazado 32" d="M709.295,302.834a2.981,2.981,0,0,1,2.116.879l.03.031a2.989,2.989,0,0,1-.03,4.2v0a2.993,2.993,0,1,1-2.115-5.114Zm1.4,1.6a1.977,1.977,0,1,0,0,2.8v0a1.983,1.983,0,0,0,.024-2.775Z" transform="translate(-526.23 38.351)" fill="#fff" fill-rule="evenodd"/>
      <path id="Trazado_33" data-name="Trazado 33" d="M571.614,435.686a2.977,2.977,0,0,1,2.117.879l.027.03a2.984,2.984,0,0,1-.027,4.2l0,0a2.993,2.993,0,1,1-2.115-5.111Zm1.4,1.6a1.979,1.979,0,1,0,0,2.8h0a1.987,1.987,0,0,0,.022-2.777Z" transform="translate(-568.62 79.254)" fill="#fff" fill-rule="evenodd"/>
      <path id="Trazado_34" data-name="Trazado 34" d="M990.7,407.908a2.981,2.981,0,0,1,2.116.876l.029.031a2.985,2.985,0,0,1-.029,4.2v0a2.994,2.994,0,1,1-2.115-5.113Zm1.4,1.594a1.977,1.977,0,1,0,0,2.8h0a1.989,1.989,0,0,0,.024-2.777Z" transform="translate(-439.592 70.701)" fill="#fff" fill-rule="evenodd"/>
      <path id="Trazado_35" data-name="Trazado 35" d="M731.034,45.589a2.987,2.987,0,0,1,2.117.876l.029.033a2.987,2.987,0,0,1-.029,4.2h0a2.994,2.994,0,1,1-2.116-5.111Zm1.4,1.6a1.978,1.978,0,1,0,0,2.8h0a1.984,1.984,0,0,0,.023-2.775Z" transform="translate(-519.537 -40.851)" fill="#fff" fill-rule="evenodd"/>
      <path id="Trazado_36" data-name="Trazado 36" d="M849.044,92.672a1.606,1.606,0,0,1,1.137.47l.014.017a1.6,1.6,0,0,1-.014,2.25h0a1.6,1.6,0,1,1-1.135-2.737Z" transform="translate(-482.775 -26.354)" fill="#fff" fill-rule="evenodd"/>
      <path id="Trazado_37" data-name="Trazado 37" d="M956.533,51.609a1.6,1.6,0,0,1,1.135.47l.014.017a1.6,1.6,0,0,1-.014,2.25h0a1.6,1.6,0,1,1-1.133-2.737Z" transform="translate(-449.681 -38.997)" fill="#fff" fill-rule="evenodd"/>
      <path id="Trazado_38" data-name="Trazado 38" d="M660.639,153.059a1.6,1.6,0,0,1,1.135.47l.016.016a1.6,1.6,0,0,1-.016,2.251h0a1.6,1.6,0,1,1-1.134-2.737Z" transform="translate(-540.782 -7.762)" fill="#fff" fill-rule="evenodd"/>
      <path id="Trazado_39" data-name="Trazado 39" d="M635.278,300.4a1.606,1.606,0,0,1,1.135.47l.016.018a1.6,1.6,0,0,1-.016,2.25h0a1.6,1.6,0,1,1-1.134-2.737Z" transform="translate(-548.591 37.602)" fill="#fff" fill-rule="evenodd"/>
      <path id="Trazado_40" data-name="Trazado 40" d="M964.99,232.769a1.6,1.6,0,0,1,1.133.47l.014.017a1.6,1.6,0,0,1-.014,2.25h0a1.6,1.6,0,1,1-1.13-2.737Z" transform="translate(-447.079 16.779)" fill="#fff" fill-rule="evenodd"/>
      <path id="Trazado_41" data-name="Trazado 41" d="M975.859,340.256a1.608,1.608,0,0,1,1.133.47l.016.018a1.606,1.606,0,0,1-.016,2.251h0a1.6,1.6,0,1,1-1.131-2.739Z" transform="translate(-443.732 49.872)" fill="#fff" fill-rule="evenodd"/>
      <path id="Trazado_42" data-name="Trazado 42" d="M916.677,325.764a1.6,1.6,0,0,1,1.135.47l.016.016a1.6,1.6,0,0,1-.016,2.251v0a1.6,1.6,0,1,1-1.134-2.739Z" transform="translate(-461.952 45.411)" fill="#fff" fill-rule="evenodd"/>
      <path id="Trazado_43" data-name="Trazado 43" d="M882.861,256.924a1.6,1.6,0,0,1,1.135.47l.016.016A1.606,1.606,0,0,1,884,259.66h0a1.6,1.6,0,1,1-1.134-2.736Z" transform="translate(-472.364 24.216)" fill="#fff" fill-rule="evenodd"/>
      <path id="Trazado_44" data-name="Trazado 44" d="M859.915,456.2a1.6,1.6,0,0,1,1.135.471l.013.016a1.6,1.6,0,0,1-.013,2.25h0a1.6,1.6,0,1,1-1.133-2.736Z" transform="translate(-479.429 85.569)" fill="#fff" fill-rule="evenodd"/>
      <path id="Trazado_45" data-name="Trazado 45" d="M670.887,382.59a1.6,1.6,0,0,1,1.133.47l.016.018a1.6,1.6,0,0,1-.016,2.251h0a1.6,1.6,0,1,1-1.133-2.739Z" transform="translate(-537.627 62.906)" fill="#fff" fill-rule="evenodd"/>
      <path id="Trazado_46" data-name="Trazado 46" d="M681.172,452.576a1.6,1.6,0,0,1,1.135.471l.014.014a1.6,1.6,0,0,1-.014,2.251h0a1.6,1.6,0,1,1-1.134-2.736Z" transform="translate(-534.461 84.454)" fill="#fff" fill-rule="evenodd"/>
      <path id="Trazado_47" data-name="Trazado 47" d="M925.163,190.409a.942.942,0,0,1,1.885,0v1.705h1.708a.942.942,0,0,1,0,1.885h-1.708v1.707a.942.942,0,0,1-1.885,0V194h-1.705a.942.942,0,1,1,0-1.885h1.705Z" transform="translate(-459.662 3.447)" fill="#fff" fill-rule="evenodd"/>
      <path id="Trazado_48" data-name="Trazado 48" d="M1004.875,299.105a.942.942,0,1,1,1.885,0v1.707h1.707a.942.942,0,0,1,0,1.885h-1.707v1.7a.942.942,0,1,1-1.885,0v-1.7h-1.707a.942.942,0,1,1,0-1.885h1.707Z" transform="translate(-435.12 36.912)" fill="#fff" fill-rule="evenodd"/>
      <path id="Trazado_49" data-name="Trazado 49" d="M706.565,272.535a.942.942,0,1,1,1.883,0v1.705h1.707a.942.942,0,0,1,0,1.883h-1.707v1.709a.942.942,0,0,1-1.883,0v-1.709h-1.707a.942.942,0,1,1,0-1.883h1.707Z" transform="translate(-526.964 28.732)" fill="#fff" fill-rule="evenodd"/>
      <path id="Trazado_50" data-name="Trazado 50" d="M583.376,255.627a.942.942,0,1,1,1.885,0v1.706h1.707a.943.943,0,0,1,0,1.886h-1.707v1.705a.942.942,0,0,1-1.885,0v-1.705h-1.706a.943.943,0,0,1,0-1.886h1.706Z" transform="translate(-564.892 23.526)" fill="#fff" fill-rule="evenodd"/>
      <path id="Trazado_51" data-name="Trazado 51" d="M589.415,57.559a.942.942,0,1,1,1.885,0v1.705h1.705a.942.942,0,0,1,0,1.885H591.3v1.707a.942.942,0,0,1-1.885,0V61.149H587.71a.942.942,0,1,1,0-1.885h1.706Z" transform="translate(-563.033 -37.456)" fill="#fff" fill-rule="evenodd"/>
      <path id="Trazado_52" data-name="Trazado 52" d="M987.967,76.882a.942.942,0,0,1,1.885,0v1.707h1.7a.942.942,0,1,1,0,1.883h-1.7v1.707a.942.942,0,1,1-1.885,0V80.472H986.26a.942.942,0,1,1,0-1.883h1.707Z" transform="translate(-440.326 -31.506)" fill="#fff" fill-rule="evenodd"/>
      <path id="Trazado_53" data-name="Trazado 53" d="M934.523,397.535a.942.942,0,1,1,1.883,0v1.706h1.708a.942.942,0,0,1,0,1.883h-1.708v1.709a.942.942,0,0,1-1.883,0v-1.709h-1.707a.942.942,0,1,1,0-1.883h1.707Z" transform="translate(-456.78 67.217)" fill="#fff" fill-rule="evenodd"/>
    </g>
    <path id="Trazado_54" data-name="Trazado 54" d="M890.122,528.118l19.983-8.491v0c3.406-1.445,5.616-5.42,5.616-11.178V164.839c0-9.741-6.329-21.043-14.06-25.115L766.812,68.709c-3.166-1.666-6.1-1.874-8.453-.868h0l-19.809,8.449,26.171,28.823L890.086,528.057Z" transform="translate(52.318 7.779)" fill="#dae7ec" fill-rule="evenodd"/>
    <path id="Trazado_55" data-name="Trazado 55" d="M748.841,453.947l134.848,71.014c7.732,4.074,14.06-.564,14.06-10.3V171.048c0-9.741-6.328-21.043-14.06-25.115L748.841,74.917c-7.732-4.073-14.06.565-14.06,10.306V428.831C734.781,438.571,741.109,449.875,748.841,453.947Z" transform="translate(51.158 9.69)" fill-rule="evenodd" fill="url(#linear-gradient)"/>
    <path id="Trazado_56" data-name="Trazado 56" d="M746.7,157.925l126.527,65.56V461.077c0,18.152-14.656,16.321-24,11.479L746.7,419.431Z" transform="translate(54.827 35.702)" fill-rule="evenodd" fill="url(#linear-gradient-2)"/>
    <path id="Trazado_57" data-name="Trazado 57" d="M746.7,116.169,873.224,181.73V443.236L746.7,377.676Z" transform="translate(54.827 22.846)" fill-rule="evenodd" fill="url(#linear-gradient-3)"/>
    <path id="Trazado_58" data-name="Trazado 58" d="M873.224,166.3V427.8L746.7,362.242Z" transform="translate(54.827 38.279)" fill-rule="evenodd" fill="url(#linear-gradient-4)"/>
    <path id="Trazado_59" data-name="Trazado 59" d="M766.126,111.623a2.565,2.565,0,0,1-1.084-3.518,2.7,2.7,0,0,1,3.607-1.057l4.573,2.407a2.567,2.567,0,0,1,1.084,3.518,2.7,2.7,0,0,1-3.608,1.058l-4.571-2.408Zm17.612,9.274a2.566,2.566,0,0,1-1.086-3.518,2.7,2.7,0,0,1,3.607-1.057L848.3,148.993a2.568,2.568,0,0,1,1.087,3.518,2.7,2.7,0,0,1-3.607,1.057Z" transform="translate(60.377 19.942)" fill="#dae7ec" fill-rule="evenodd"/>
    <path id="Trazado_60" data-name="Trazado 60" d="M788.2,344.373c6.253,0,11.828,9.361,12.452,20.909s-3.942,20.908-10.2,20.908-11.83-9.359-12.452-20.908S781.946,344.373,788.2,344.373Z" transform="translate(64.448 93.106)" fill="#dae7ec" fill-rule="evenodd"/>
    <path id="Trazado_61" data-name="Trazado 61" d="M868.63,183.382h0a4.481,4.481,0,0,1,4.469,4.466v36.3a4.481,4.481,0,0,1-4.469,4.468h0a4.483,4.483,0,0,1-4.469-4.468v-36.3a4.482,4.482,0,0,1,4.469-4.466Zm0,114.446a1.766,1.766,0,1,1-1.767,1.768,1.764,1.764,0,0,1,1.767-1.768Zm0-51.834a5.535,5.535,0,0,0-5.523,5.523v48.216a5.523,5.523,0,0,0,11.046,0V251.517a5.535,5.535,0,0,0-5.523-5.523Zm0,2.11a3.43,3.43,0,0,0-3.414,3.414v48.216a3.414,3.414,0,0,0,6.827,0V251.517a3.43,3.43,0,0,0-3.414-3.414Z" transform="translate(90.668 43.54)" fill="#bcd1db" fill-rule="evenodd"/>
    <path id="Trazado_62" data-name="Trazado 62" d="M746.7,321.9q31.579,16.373,63.237,32.774,31.619,16.389,63.29,32.786V362.855q-31.638-16.385-63.29-32.786Q778.306,313.7,746.7,297.321Z" transform="translate(54.827 78.619)" fill-rule="evenodd" fill="url(#linear-gradient-5)"/>
    <path id="Trazado_63" data-name="Trazado 63" d="M767.961,311.97q18.771,9.729,37.553,19.46t37.566,19.463c3.794,1.967,6.908,6.588,6.908,10.3h0c0,3.714-3.114,5.135-6.908,3.17q-18.788-9.74-37.566-19.465t-37.553-19.46c-3.8-1.967-6.908-6.588-6.908-10.3h0C761.053,311.4,764.166,310,767.961,311.97Z" transform="translate(59.247 82.855)" fill="#fff" fill-rule="evenodd"/>
    <path id="Trazado_64" data-name="Trazado 64" d="M755.036,307.056h0a2.26,2.26,0,0,1,1.176,1.759v2.248l2.277,1.181A2.256,2.256,0,0,1,759.666,314h0c0,.629-.53.874-1.177.541l-2.277-1.18v2.222c0,.629-.531.876-1.176.541h0a2.27,2.27,0,0,1-1.19-1.767v-2.223l-2.265-1.172a2.268,2.268,0,0,1-1.189-1.766h0c0-.628.531-.876,1.189-.536.747.386,1.518.782,2.278,1.173V307.59C753.859,306.961,754.378,306.714,755.036,307.056Z" transform="translate(55.965 81.569)" fill="#fff" fill-rule="evenodd"/>
    <path id="Trazado_65" data-name="Trazado 65" d="M840.256,356.112c0-.288.253-.392.546-.242a1.032,1.032,0,0,1,.543.8,2.529,2.529,0,0,1-1.367,2.509,3.429,3.429,0,0,1-2.757-.128v1.363c0,.314-.241.424-.545.265a1.051,1.051,0,0,1-.543-.83v-1.359a9.458,9.458,0,0,1-2.758-2.736,7.351,7.351,0,0,1-1.38-3.931c0-.289.252-.394.543-.242a1.03,1.03,0,0,1,.545.8,5.716,5.716,0,0,0,1.063,3.034,7.134,7.134,0,0,0,2.529,2.332,2.968,2.968,0,0,0,2.532.3,2.006,2.006,0,0,0,1.049-1.94Zm-3.581-7.8c-1.441-.749-2.618-.208-2.618,1.2v3.376a5.008,5.008,0,0,0,2.618,3.918h0c1.456.753,2.621.212,2.621-1.2v-3.372a5,5,0,0,0-2.621-3.926Z" transform="translate(81.088 94.216)" fill="#fff" fill-rule="evenodd"/>
    <path id="Trazado_66" data-name="Trazado 66" d="M758.421,131.485c4.694,2.431,8.491,8.113,8.491,12.689,0,4.551-3.81,6.3-8.491,3.865s-8.5-8.114-8.5-12.666C749.917,130.8,753.727,129.055,758.421,131.485Z" transform="translate(55.818 27.224)" fill="#fbe8eb" fill-rule="evenodd"/>
    <path id="Trazado_67" data-name="Trazado 67" d="M757.4,133.715a2.472,2.472,0,0,0-2.114-.231,1.651,1.651,0,0,0-.872,1.613,4.846,4.846,0,0,0,.872,2.519l.027.013a5.889,5.889,0,0,0,2.086,1.92,2.458,2.458,0,0,0,2.1.258v-.026a1.608,1.608,0,0,0,.874-1.586,4.673,4.673,0,0,0-.874-2.519,5.9,5.9,0,0,0-2.1-1.959Zm4.137,12.586a6.121,6.121,0,0,1-4.137-.765A13.4,13.4,0,0,1,753.237,142h0v-.263a2.317,2.317,0,0,1,1.214-2.227l.025.014a3.359,3.359,0,0,1,2.923.311,8.321,8.321,0,0,1,2.923,2.724,6.532,6.532,0,0,1,1.214,3.48v.262Z" transform="translate(56.84 28.132)" fill="#ef8871" fill-rule="evenodd"/>
    <path id="Trazado_68" data-name="Trazado 68" d="M833.161,173.363l6.692,3.467a1.457,1.457,0,0,1,.745,1.118v.837c0,.392-.341.53-.745.32q-3.361-1.74-6.692-3.468a1.393,1.393,0,0,1-.748-1.093v-.836c0-.392.33-.561.748-.345Zm-53.661-19.9q-3.341-1.736-6.681-3.466c-.406-.209-.747-.073-.747.345v.837a1.412,1.412,0,0,0,.747,1.092q3.341,1.73,6.681,3.466c.417.218.747.075.747-.318v-.838a1.4,1.4,0,0,0-.747-1.118ZM814.065,171.4q-13.911-7.253-27.823-14.444c-.4-.209-.747-.073-.747.345v.837a1.422,1.422,0,0,0,.747,1.093q13.911,7.2,27.823,14.418c.405.209.745.1.745-.294v-.837a1.414,1.414,0,0,0-.745-1.118Zm-41.247-29.3q13.38,6.939,26.785,13.882t26.81,13.892a1.463,1.463,0,0,1,.748,1.12v.837c0,.392-.339.524-.735.319q-13.417-6.957-26.823-13.894t-26.785-13.879a1.416,1.416,0,0,1-.747-1.093v-.837C772.072,142.049,772.413,141.885,772.819,142.095Z" transform="translate(62.639 30.8)" fill="#ef8871" fill-rule="evenodd"/>
    <path id="Trazado_69" data-name="Trazado 69" d="M750.386,120.919a.912.912,0,0,1-.47-.688c0-.26.216-.358.47-.226q5.1,2.637,10.211,5.286a.907.907,0,0,1,.468.713c0,.235-.214.334-.468.2q-5.1-2.646-10.211-5.288Zm0,6.538a.912.912,0,0,1-.47-.688c0-.262.216-.36.47-.228,3.393,1.759,6.808,3.521,10.211,5.286a.894.894,0,0,1,.455.713c0,.237-.2.334-.455.2-3.4-1.764-6.818-3.53-10.211-5.286Zm0-3.27c3.393,1.759,6.808,3.523,10.211,5.288.254.131.468.034.468-.2a.911.911,0,0,0-.468-.713c-3.4-1.766-6.818-3.529-10.211-5.288-.254-.129-.47-.033-.47.229A.907.907,0,0,0,750.386,124.187Z" transform="translate(55.818 24.009)" fill="#fff" fill-rule="evenodd"/>
    <path id="Trazado_70" data-name="Trazado 70" d="M843.08,168.724Zm-12.263-5.859,5.985,3.1v4.707l-5.985-3.1a1,1,0,0,1-.341-.307.763.763,0,0,1-.139-.415v-3.764a.266.266,0,0,1,.139-.268.418.418,0,0,1,.341.046Zm11.262,4.922-11.262-5.837a1.1,1.1,0,0,0-1-.1.745.745,0,0,0-.417.752v3.765a2.335,2.335,0,0,0,.417,1.211,2.892,2.892,0,0,0,1,.909l11.262,5.837a1.17,1.17,0,0,0,.961.133c.012.007.025.013.039-.007a.807.807,0,0,0,.415-.777v-3.767a2.167,2.167,0,0,0-.415-1.184A2.74,2.74,0,0,0,842.08,167.786Z" transform="translate(80.29 36.886)" fill="#fff" fill-rule="evenodd"/>
    <path id="Trazado_71" data-name="Trazado 71" d="M754.568,152.288q19.169,9.933,38.338,19.863t38.361,19.9a6.641,6.641,0,0,1,3.48,5.183c.01,6.432.013,12.866.013,19.247,0,1.882-1.569,2.612-3.493,1.615q-19.185-9.939-38.361-19.873-19.152-9.925-38.338-19.863a6.691,6.691,0,0,1-3.48-5.23V153.883C751.088,152,752.657,151.3,754.568,152.288Z" transform="translate(56.179 33.828)" fill="#604195" fill-rule="evenodd"/>
    <path id="Trazado_72" data-name="Trazado 72" d="M799.6,209.133q12.548,6.5,25.1,13.007,12.534,6.519,25.114,13.04a3.682,3.682,0,0,1,1.937,2.886v10.642c0,1.048-.872,1.43-1.937.882q-12.581-6.513-25.114-13.013t-25.1-13.007a3.694,3.694,0,0,1-1.936-2.886v-10.67C797.669,208.967,798.544,208.584,799.6,209.133Z" transform="translate(70.52 51.391)" fill="#863185" fill-rule="evenodd"/>
    <path id="Trazado_73" data-name="Trazado 73" d="M752.771,175.407q12.66,6.56,25.356,13.134,12.642,6.551,25.344,13.135a3.411,3.411,0,0,1,1.7,2.761V215.08a1.063,1.063,0,0,1-1.7,1.006l-21.965-11.381q-10.973-5.681-21.954-11.373-3.51,2.062-7.009,4.133c-.255.152-.608.052-.935-.276a1.679,1.679,0,0,1-.521-1.133V176.418A1.055,1.055,0,0,1,752.771,175.407Z" transform="translate(56.179 41.025)" fill="#604195" fill-rule="evenodd"/>
    <path id="Trazado_74" data-name="Trazado 74" d="M772.6,210.344q21.1,10.931,42.222,21.907,21.113,10.959,42.259,21.891a7.015,7.015,0,0,1,3.467,5.64v52.173c0,.523-.276.81-.708.783a1.708,1.708,0,0,1-1.229-.9q-6.829-11.112-13.639-22.237-18.105-9.382-36.2-18.758Q790.69,261.5,772.6,252.131a7.045,7.045,0,0,1-3.454-5.661V212.4C769.141,210.28,770.7,209.361,772.6,210.344Z" transform="translate(61.737 51.719)" fill="#863185" fill-rule="evenodd"/>
    <path id="Trazado_75" data-name="Trazado 75" d="M757.883,240.1q15.961,8.269,31.949,16.554c10.623,5.5,21.308,11.018,31.959,16.537a5.693,5.693,0,0,1,2.809,4.566v17.707c0,1.7-1.265,2.455-2.809,1.654q-14.29-7.406-28.569-14.8l-28.546-14.791c-2.719,1.651-5.43,3.242-8.147,4.846-.256.152-.609.051-.936-.276a1.677,1.677,0,0,1-.519-1.131V241.762C755.074,240.061,756.328,239.3,757.883,240.1Z" transform="translate(57.406 60.904)" fill="#863185" fill-rule="evenodd"/>
    <path id="Trazado_76" data-name="Trazado 76" d="M770.978,274.964q21.939,11.324,43.856,22.694t43.853,22.724a3.735,3.735,0,0,1,1.86,3V346.53c0,.391-.214.611-.531.587a1.3,1.3,0,0,1-.936-.694c-3.008-4.915-6.048-9.827-9.06-14.759q-19.74-10.239-39.514-20.479-19.757-10.239-39.528-20.454a3.726,3.726,0,0,1-1.847-3V276.019C769.131,274.921,769.965,274.441,770.978,274.964Z" transform="translate(61.734 71.671)" fill="#863185" fill-rule="evenodd"/>
    <path id="Trazado_77" data-name="Trazado 77" d="M753.331,281.226c5.568,2.889,11.173,5.794,16.753,8.686s11.185,5.8,16.777,8.695a4.321,4.321,0,0,1,2.252,3.365v12.42c0,1.2-1.012,1.648-2.252,1-5.592-2.9-11.2-5.8-16.777-8.695s-11.184-5.8-16.753-8.66a4.273,4.273,0,0,1-2.252-3.329V282.29C751.079,281.086,752.093,280.583,753.331,281.226Z" transform="translate(56.176 73.578)" fill="#863185" fill-rule="evenodd"/>
    <path id="Trazado_78" data-name="Trazado 78" d="M824.152,346.018l10.58,5.48a1.415,1.415,0,0,1,.744,1.093v.834c0,.394-.341.557-.744.348q-5.3-2.743-10.58-5.479a1.461,1.461,0,0,1-.747-1.122v-.834c0-.394.343-.53.747-.32Zm-59.1-30.632c10.642,5.506,11.138,5.773,21.779,11.287s21.307,11.046,31.959,16.566a1.389,1.389,0,0,1,.735,1.087v.837c0,.391-.33.56-.735.353q-15.979-8.285-31.959-16.566c-10.641-5.515-11.138-5.776-21.792-11.291a1.436,1.436,0,0,1-.746-1.12V315.7C764.29,315.312,764.622,315.164,765.049,315.386Z" transform="translate(60.243 84.15)" fill="#e7e8eb" fill-rule="evenodd"/>
    <path id="Trazado_79" data-name="Trazado 79" d="M744.39,281.226c5.568,2.889,11.173,5.794,16.753,8.686s11.186,5.8,16.778,8.695a4.321,4.321,0,0,1,2.252,3.365v12.42c0,1.2-1.012,1.648-2.252,1q-8.387-4.343-16.778-8.695c-5.579-2.892-11.184-5.8-16.753-8.66a4.271,4.271,0,0,1-2.251-3.329V282.29C742.139,281.086,743.151,280.583,744.39,281.226Z" transform="translate(53.424 73.578)" fill="#f4ad85" fill-rule="evenodd"/>
    <path id="Trazado_80" data-name="Trazado 80" d="M773.082,305.831q1.155.589,2.29,1.152a1.414,1.414,0,0,1,.735,1.113v.836c0,.394-.331.536-.735.327-.759-.394-1.518-.785-2.29-1.181a1.389,1.389,0,0,1-.735-1.088v-.834c0-.369.33-.534.735-.324Zm-27.671-20.858q14.955,7.757,29.961,15.5a1.433,1.433,0,0,1,.735,1.139v.838c0,.391-.33.534-.735.324Q760.36,295,745.4,287.248a1.393,1.393,0,0,1-.734-1.093v-.836c0-.391.33-.562.748-.345Zm-.014,6.512c-.407-.212-.734-.048-.734.345v.837a1.392,1.392,0,0,0,.734,1.091c7.931,4.116,15.867,8.2,23.8,12.307.4.211.734.067.734-.327V304.9a1.429,1.429,0,0,0-.734-1.086Q757.3,297.65,745.4,291.485Z" transform="translate(54.201 74.789)" fill="#ef8871" fill-rule="evenodd"/>
    <path id="Trazado_81" data-name="Trazado 81" d="M758.768,274.964q21.939,11.324,43.855,22.694t43.855,22.724a3.735,3.735,0,0,1,1.86,3V346.53c0,.391-.213.611-.532.587a1.307,1.307,0,0,1-.936-.694c-3.007-4.915-6.046-9.827-9.057-14.759q-19.74-10.239-39.516-20.479-19.755-10.239-39.527-20.454a3.726,3.726,0,0,1-1.847-3V276.019C756.921,274.921,757.755,274.441,758.768,274.964Z" transform="translate(57.975 71.671)" fill="#fff" fill-rule="evenodd"/>
    <path id="Trazado_82" data-name="Trazado 82" d="M831.375,317.632q5.277,2.737,10.578,5.48a1.421,1.421,0,0,1,.745,1.093v.837c0,.391-.343.555-.745.345q-5.3-2.743-10.578-5.479a1.461,1.461,0,0,1-.747-1.12v-.837c0-.394.343-.53.747-.32Zm-69.275-35.9q15.965,8.261,31.949,16.558,15.96,8.269,31.961,16.563a1.394,1.394,0,0,1,.734,1.087v.837c0,.391-.33.562-.734.353l-31.961-16.566q-15.961-8.273-31.961-16.558a1.435,1.435,0,0,1-.747-1.12v-.836C761.342,281.658,761.673,281.509,762.1,281.731Z" transform="translate(59.336 73.788)" fill="#ef8871" fill-rule="evenodd"/>
    <path id="Trazado_83" data-name="Trazado 83" d="M743.61,240.1q15.957,8.269,31.946,16.554c10.624,5.5,21.308,11.018,31.962,16.537a5.7,5.7,0,0,1,2.807,4.566v17.707c0,1.7-1.265,2.455-2.807,1.654q-14.292-7.406-28.571-14.8-14.257-7.388-28.544-14.791c-2.72,1.651-5.432,3.242-8.148,4.846-.256.152-.608.051-.936-.276a1.677,1.677,0,0,1-.519-1.131V241.762C740.8,240.061,742.052,239.3,743.61,240.1Z" transform="translate(53.011 60.904)" fill="#ef8871" fill-rule="evenodd"/>
    <path id="Trazado_84" data-name="Trazado 84" d="M795.727,279.5l5.34,2.766a1.389,1.389,0,0,1,.731,1.11v.838c0,.391-.328.534-.731.324-1.785-.922-3.571-1.847-5.34-2.766a1.413,1.413,0,0,1-.748-1.093v-.81c0-.419.343-.581.748-.37Zm-50.334-33.615,27.824,14.418,27.85,14.43a1.39,1.39,0,0,1,.731,1.086v.838c0,.419-.328.561-.731.352q-13.933-7.217-27.85-14.432t-27.824-14.389a1.393,1.393,0,0,1-.734-1.113v-.863c0-.391.33-.535.734-.326Zm0,7.557c-.4-.209-.734-.067-.734.352v.838a1.39,1.39,0,0,0,.734,1.086q11.1,5.752,22.218,11.513t22.245,11.5c.419.214.747.073.747-.319V277.6a1.394,1.394,0,0,0-.747-1.118l-22.245-11.528Z" transform="translate(54.199 62.754)" fill="#f4ad85" fill-rule="evenodd"/>
    <path id="Trazado_85" data-name="Trazado 85" d="M735.4,210.344q21.105,10.931,42.221,21.907,21.115,10.959,42.262,21.891a7.02,7.02,0,0,1,3.466,5.64v52.173c0,.523-.277.81-.709.783a1.7,1.7,0,0,1-1.227-.9q-6.833-11.112-13.639-22.237-18.106-9.382-36.2-18.758Q753.5,261.5,735.4,252.131a7.044,7.044,0,0,1-3.453-5.661V212.4C731.951,210.28,733.506,209.361,735.4,210.344Z" transform="translate(50.287 51.719)" fill="#f3b88a" fill-rule="evenodd"/>
    <path id="Trazado_86" data-name="Trazado 86" d="M745.376,240.038q-2.866-1.487-5.706-2.957c-.405-.211-.735-.067-.735.326v.837a1.431,1.431,0,0,0,.735,1.112l5.706,2.957c.4.209.744.047.744-.345v-.837a1.413,1.413,0,0,0-.744-1.092Zm-5.706-18.385q17.9,9.27,35.8,18.559t35.833,18.567a1.4,1.4,0,0,1,.747,1.086v.838c0,.39-.343.561-.747.349q-17.9-9.279-35.833-18.565-17.882-9.266-35.8-18.559a1.433,1.433,0,0,1-.735-1.113v-.837c0-.392.33-.535.735-.324Zm0,7.529,23.457,12.155,23.458,12.155a1.383,1.383,0,0,1,.734,1.085v.838c0,.39-.328.558-.734.349l-23.458-12.153L739.67,231.458a1.431,1.431,0,0,1-.735-1.113v-.837c0-.392.33-.535.735-.326Zm53,27.463c-.406-.209-.735-.067-.735.327v.836a1.43,1.43,0,0,0,.735,1.113l5.705,2.956c.407.209.735.041.735-.351v-.837a1.382,1.382,0,0,0-.735-1.086c-1.91-.989-3.806-1.975-5.705-2.958Zm-16.928-.874L751.474,243.2c-.406-.209-.747-.073-.747.319v.838a1.458,1.458,0,0,0,.747,1.118q12.128,6.284,24.269,12.573c.4.209.732.042.732-.349v-.838A1.392,1.392,0,0,0,775.743,255.772Z" transform="translate(52.437 55.293)" fill="#ef8871" fill-rule="evenodd"/>
    <path id="Trazado_87" data-name="Trazado 87" d="M763.323,209.133q12.546,6.5,25.1,13.007,12.534,6.519,25.114,13.04a3.687,3.687,0,0,1,1.938,2.886v10.642c0,1.048-.875,1.43-1.938.882q-12.581-6.513-25.114-13.013t-25.1-13.007a3.693,3.693,0,0,1-1.937-2.886v-10.67C761.386,208.967,762.261,208.584,763.323,209.133Z" transform="translate(59.349 51.391)" fill="#fff" fill-rule="evenodd"/>
    <path id="Trazado_88" data-name="Trazado 88" d="M803.766,234.864q1.764.912,3.568,1.841a1.387,1.387,0,0,1,.735,1.112v.837c0,.392-.33.535-.735.326q-1.8-.926-3.568-1.842a1.391,1.391,0,0,1-.735-1.087v-.836c0-.42.332-.562.735-.352Zm-37.059-19.209q8.085,4.189,16.169,8.377t16.2,8.391a1.418,1.418,0,0,1,.747,1.12v.837c0,.392-.341.528-.747.319q-8.1-4.2-16.2-8.39l-16.169-8.378a1.393,1.393,0,0,1-.735-1.088v-.836C765.972,215.588,766.3,215.446,766.707,215.656Z" transform="translate(60.761 53.447)" fill="#ef8871" fill-rule="evenodd"/>
    <path id="Trazado_89" data-name="Trazado 89" d="M713.485,175.407q12.66,6.56,25.356,13.134,12.642,6.551,25.344,13.135a3.412,3.412,0,0,1,1.7,2.761V215.08a1.063,1.063,0,0,1-1.7,1.006l-21.966-11.381q-10.969-5.681-21.952-11.373-3.512,2.062-7.01,4.133c-.256.152-.608.052-.936-.276a1.672,1.672,0,0,1-.519-1.133V176.418A1.055,1.055,0,0,1,713.485,175.407Z" transform="translate(44.083 41.025)" fill="#fff" fill-rule="evenodd"/>
    <path id="Trazado_90" data-name="Trazado 90" d="M719.575,183.153l-4.037-2.091c-.4-.209-.747-.072-.747.319v.837a1.42,1.42,0,0,0,.747,1.12l4.037,2.091c.4.209.732.067.732-.352v-.837a1.391,1.391,0,0,0-.732-1.087Zm40.716,21.095q-8.938-4.628-17.853-9.247T724.6,185.757c-.4-.211-.734-.068-.734.326v.836a1.4,1.4,0,0,0,.734,1.113q8.92,4.62,17.841,9.244t17.853,9.249c.419.216.747.072.747-.347v-.837A1.4,1.4,0,0,0,760.291,204.248Z" transform="translate(45.004 42.795)" fill="#ef8871" fill-rule="evenodd"/>
    <path id="Trazado_91" data-name="Trazado 91" d="M720.973,152.288q19.167,9.933,38.337,19.863t38.363,19.9a6.644,6.644,0,0,1,3.48,5.183c.009,6.432.013,12.866.013,19.247,0,1.882-1.568,2.612-3.493,1.615q-19.187-9.939-38.363-19.873-19.149-9.925-38.337-19.863a6.691,6.691,0,0,1-3.48-5.23V153.883C717.493,152,719.062,151.3,720.973,152.288Z" transform="translate(45.835 33.828)" fill="#f8cab0" fill-rule="evenodd"/>
    <path id="Trazado_92" data-name="Trazado 92" d="M722.1,166.884q11.728,6.078,23.46,12.157,11.71,6.066,23.445,12.152a1.429,1.429,0,0,1,.732,1.113v.836c0,.392-.328.535-.732.326q-11.73-6.076-23.445-12.152-11.747-6.084-23.46-12.157a1.386,1.386,0,0,1-.746-1.086v-.837c0-.391.341-.561.746-.352Zm0-7.531c-.4-.209-.734-.041-.734.352v.837a1.392,1.392,0,0,0,.734,1.087c11.92,6.182,23.887,12.38,35.807,18.558s23.888,12.376,35.82,18.563c.4.209.734.067.734-.326v-.837a1.431,1.431,0,0,0-.734-1.112q-17.9-9.281-35.82-18.563c-11.92-6.177-23.888-12.376-35.807-18.559Zm52.99,34.991c1.9.984,3.793,1.97,5.705,2.982a1.423,1.423,0,0,1,.747,1.093v.837c0,.391-.341.528-.747.318l-5.705-2.954a1.387,1.387,0,0,1-.735-1.087V194.7C774.355,194.305,774.684,194.136,775.09,194.344Z" transform="translate(47.024 36.114)" fill="#ef8871" fill-rule="evenodd"/>
    <path id="Trazado_93" data-name="Trazado 93" d="M902.887,107.949h0c4.457-2.625,11.75.373,16.209,6.661l1.1,1.552,1.1-.649c4.458-2.625,11.753.373,16.209,6.661h0c4.457,6.29,4.457,13.584,0,16.209l-1.1.649-16.21,9.548-16.206-22.87-1.1-1.551C898.431,117.869,898.431,110.576,902.887,107.949Z" transform="translate(101.886 20.022)" fill-rule="evenodd" fill="url(#linear-gradient-6)"/>
    <path id="Trazado_94" data-name="Trazado 94" d="M672.906,48.142l58.067,33.072c5.243,2.986,9.537,11.044,9.537,17.9v72.23l-6.435,1.619-2.842-14.8-14.444-24.1L679.34,112.741c-5.246-2.987-9.537-11.045-9.537-17.906V58.086L661.837,48.7l6.018-1.533h0A6.836,6.836,0,0,1,672.906,48.142Z" transform="translate(28.7 1.555)" fill-rule="evenodd" fill="url(#linear-gradient-7)"/>
    <path id="Trazado_95" data-name="Trazado 95" d="M667.626,49.379l58.066,33.072c5.245,2.989,9.537,11.046,9.537,17.908v72.229s-2.618-20.088-20.615-30.225L667.626,115.6c-5.243-2.987-9.537-11.045-9.537-17.9V56.422C658.089,49.562,662.383,46.393,667.626,49.379Z" transform="translate(27.546 1.936)" fill-rule="evenodd" fill="url(#linear-gradient-8)"/>
    <path id="Trazado_96" data-name="Trazado 96" d="M682.748,81.691a4.463,4.463,0,0,1,3.911-1.736,2.744,2.744,0,0,0,2.956-2.2,21.628,21.628,0,0,0,.6-6.287c0-.841.681-1.116,1.524-.612l2.608,1.56a5.109,5.109,0,0,1,.786.594,13.2,13.2,0,0,1,2.829,4.329,14.678,14.678,0,0,1,1.233,5.572,8.3,8.3,0,0,1-.511,2.992c-.232.6-.874,2.384-.577,3.3a2.266,2.266,0,0,0,.447.328l6.542,3.912a15.777,15.777,0,0,1,2.222,1.6,12.408,12.408,0,0,1,2.63,3.136,8.28,8.28,0,0,1,1.19,4.151,7.2,7.2,0,0,1-.237,1.823c.943,3,1.133,6.129-.782,6.974.118,2.08-.378,3.975-2.082,4.18-.928,2.278-3.206,2.753-6.291.91l-11.995-7.171a22.474,22.474,0,0,1-5.761-5.789,1.53,1.53,0,0,1-.9.99l-.052.018a2.864,2.864,0,0,1-2.325-.463l-5.451-3.259a7.476,7.476,0,0,1-2.4-2.43,5.911,5.911,0,0,1-1-2.992V77.906a1.781,1.781,0,0,1,1.017-1.811l.051-.014a2.854,2.854,0,0,1,2.326.462l5.451,3.259a7.243,7.243,0,0,1,2.029,1.89Zm1.365,17.731c1.376,2.206,3.68,5.4,5.642,6.579l11.995,7.171c1.746,1.042,3.164.7,3.5-.821a.7.7,0,0,1,.811-.568c1.108.107,1.139-1.692.981-2.8-.127-.662.1-1.121.589-1.189,1.446-.2.957-2.807.337-4.551a1.782,1.782,0,0,1-.128-1.189,5.023,5.023,0,0,0,.258-1.539,3.361,3.361,0,0,0-.429-1.691,5.362,5.362,0,0,0-1.133-1.3,10.081,10.081,0,0,0-1.432-1.025l-6.542-3.912a6.961,6.961,0,0,1-3.238-3.85,8.229,8.229,0,0,1,.46-5.472,6.1,6.1,0,0,0,.374-2.171,10,10,0,0,0-.837-3.831,7.813,7.813,0,0,0-1.046-1.842l-1.018-.608a19.172,19.172,0,0,1-.708,5.523c-.713,2.117-2.076,3.312-4.443,3.17-2.257-.135-3.6,2.012-3.989,4.232V99.422ZM680.719,82.85l-5.451-3.259a.3.3,0,0,0-.208-.059l-.035.017a.176.176,0,0,0-.1.179V96.946a.592.592,0,0,0,.1.3.759.759,0,0,0,.242.249l5.451,3.259a.3.3,0,0,0,.205.06l.038-.018a.178.178,0,0,0,.1-.18V83.4a.613.613,0,0,0-.1-.3A.752.752,0,0,0,680.719,82.85Z" transform="translate(31.79 8.816)" fill="#fff" fill-rule="evenodd"/>
    <path id="Trazado_105" data-name="Trazado 105" d="M804.329,247.258a.351.351,0,0,0-.255.592.343.343,0,0,0,.255.11h.7a.353.353,0,0,0,.255-.6.361.361,0,0,0-.255-.107Zm42.919.7a.351.351,0,1,0,0-.7h-.7a.351.351,0,0,0-.255.592.343.343,0,0,0,.255.11Zm-4.223,0a.351.351,0,1,0,0-.7h-.7a.35.35,0,0,0-.252.592.342.342,0,0,0,.252.11Zm-4.219,0a.352.352,0,0,0,.252-.6.347.347,0,0,0-.252-.107h-.7a.351.351,0,0,0-.255.592.346.346,0,0,0,.255.11Zm-4.223,0a.353.353,0,0,0,.256-.6.357.357,0,0,0-.256-.107h-.7a.351.351,0,0,0-.254.592.347.347,0,0,0,.254.11Zm-4.219,0a.351.351,0,0,0,0-.7h-.706a.35.35,0,0,0-.254.592.347.347,0,0,0,.254.11Zm-4.223,0a.351.351,0,1,0,0-.7h-.7a.351.351,0,0,0-.255.592.348.348,0,0,0,.255.11Zm-4.222,0a.351.351,0,1,0,0-.7h-.7a.351.351,0,1,0,0,.7Zm-4.222,0a.354.354,0,0,0,.256-.6.364.364,0,0,0-.256-.107h-.7a.351.351,0,0,0-.255.592.343.343,0,0,0,.255.11Zm-4.222,0a.351.351,0,1,0,0-.7h-.7a.351.351,0,0,0-.256.592.344.344,0,0,0,.256.11Zm-4.222,0a.351.351,0,1,0,0-.7h-.7a.35.35,0,0,0-.252.592.341.341,0,0,0,.252.11Z" transform="translate(72.462 63.206)" fill="#fff" fill-rule="evenodd"/>
    <path id="Trazado_106" data-name="Trazado 106" d="M804.329,287.647a.351.351,0,1,0,0,.7h.7a.351.351,0,0,0,0-.7Zm42.919.7a.351.351,0,0,0,.255-.592.344.344,0,0,0-.255-.11h-.7a.351.351,0,1,0,0,.7Zm-4.223,0a.352.352,0,0,0,.256-.592.344.344,0,0,0-.256-.11h-.7a.351.351,0,0,0,0,.7Zm-4.219,0a.35.35,0,0,0,.252-.592.34.34,0,0,0-.252-.11h-.7a.351.351,0,1,0,0,.7Zm-4.223,0a.351.351,0,1,0,0-.7h-.7a.351.351,0,1,0,0,.7Zm-4.219,0a.351.351,0,0,0,.252-.592.346.346,0,0,0-.252-.11h-.706a.351.351,0,1,0,0,.7Zm-4.223,0a.351.351,0,0,0,0-.7h-.7a.351.351,0,1,0,0,.7Zm-4.222,0a.351.351,0,0,0,.254-.592.343.343,0,0,0-.254-.11h-.7a.353.353,0,0,0-.256.6.359.359,0,0,0,.256.107Zm-4.222,0a.352.352,0,0,0,.256-.592.356.356,0,0,0-.256-.11h-.7a.351.351,0,1,0,0,.7Zm-4.222,0a.351.351,0,0,0,0-.7h-.7a.351.351,0,1,0,0,.7Zm-4.222,0a.351.351,0,0,0,.254-.592.343.343,0,0,0-.254-.11h-.7a.351.351,0,0,0,0,.7Z" transform="translate(72.462 75.641)" fill="#fff" fill-rule="evenodd"/>
    <path id="Trazado_107" data-name="Trazado 107" d="M771.98,295.838a.351.351,0,0,0-.254.592.347.347,0,0,0,.254.11h.7a.351.351,0,1,0,0-.7Zm4.925.7a.351.351,0,1,0,0-.7h-.7a.351.351,0,0,0-.255.592.347.347,0,0,0,.255.11Z" transform="translate(62.503 78.163)" fill="#fff" fill-rule="evenodd"/>
    <path id="Trazado_108" data-name="Trazado 108" d="M771.98,306.506a.353.353,0,0,0-.254.6.357.357,0,0,0,.254.11h.7a.352.352,0,0,0,0-.7Zm9.147.7a.352.352,0,0,0,0-.7h-.7a.353.353,0,0,0-.255.6.358.358,0,0,0,.255.11Zm-4.222,0a.352.352,0,0,0,0-.7h-.7a.352.352,0,0,0,0,.7Z" transform="translate(62.503 81.447)" fill="#fff" fill-rule="evenodd"/>
    <path id="Trazado_109" data-name="Trazado 109" d="M828.009,329a.352.352,0,0,0,0,.7h.705a.352.352,0,0,0,0-.7Zm13.369.7a.353.353,0,0,0,.255-.6.358.358,0,0,0-.255-.11h-.7a.353.353,0,0,0-.255.6.365.365,0,0,0,.255.11Zm-4.221,0a.353.353,0,0,0,.255-.6.36.36,0,0,0-.255-.11h-.7a.353.353,0,0,0-.255.6.358.358,0,0,0,.255.11Zm-4.222,0a.352.352,0,0,0,0-.7h-.7a.353.353,0,0,0-.256.6.361.361,0,0,0,.256.11Z" transform="translate(79.754 88.372)" fill="#fff" fill-rule="evenodd"/>
    <path id="Trazado_110" data-name="Trazado 110" d="M828.009,311.328a.351.351,0,0,0,0,.7h.705a.35.35,0,0,0,.254-.592.355.355,0,0,0-.254-.11Zm13.369.7a.351.351,0,0,0,.255-.592.358.358,0,0,0-.255-.11h-.7a.353.353,0,0,0-.255.6.363.363,0,0,0,.255.107Zm-4.221,0a.351.351,0,0,0,.255-.592.36.36,0,0,0-.255-.11h-.7a.351.351,0,1,0,0,.7Zm-4.222,0a.351.351,0,0,0,0-.7h-.7a.353.353,0,0,0-.256.6.359.359,0,0,0,.256.107Z" transform="translate(79.754 82.932)" fill="#fff" fill-rule="evenodd"/>
    <path id="Trazado_111" data-name="Trazado 111" d="M804.329,230.871a.351.351,0,1,0,0,.7h.7a.352.352,0,0,0,.255-.594.357.357,0,0,0-.255-.109Zm42.919.7a.352.352,0,0,0,.255-.594.347.347,0,0,0-.255-.109h-.7a.351.351,0,1,0,0,.7Zm-4.223,0a.352.352,0,0,0,.256-.594.348.348,0,0,0-.256-.109h-.7a.351.351,0,0,0,0,.7Zm-4.219,0a.351.351,0,0,0,.252-.594.343.343,0,0,0-.252-.109h-.7a.351.351,0,1,0,0,.7Zm-4.223,0a.351.351,0,1,0,0-.7h-.7a.352.352,0,0,0-.254.594.356.356,0,0,0,.254.109Zm-4.219,0a.351.351,0,0,0,0-.7h-.706a.351.351,0,0,0-.254.594.356.356,0,0,0,.254.109Zm-4.223,0a.351.351,0,1,0,0-.7h-.7a.352.352,0,0,0-.255.594.357.357,0,0,0,.255.109Zm-4.222,0a.352.352,0,0,0,.254-.594.346.346,0,0,0-.254-.109h-.7a.352.352,0,0,0-.256.594.36.36,0,0,0,.256.109Zm-4.222,0a.353.353,0,0,0,.256-.594.36.36,0,0,0-.256-.109h-.7a.351.351,0,1,0,0,.7Zm-4.222,0a.351.351,0,1,0,0-.7h-.7a.351.351,0,1,0,0,.7Zm-4.222,0a.352.352,0,0,0,.254-.594.347.347,0,0,0-.254-.109h-.7a.351.351,0,0,0,0,.7Z" transform="translate(72.462 58.161)" fill="#fff" fill-rule="evenodd"/>
    <path id="Trazado_112" data-name="Trazado 112" d="M804.329,239.233a.352.352,0,0,0-.255.594.348.348,0,0,0,.255.11h.7a.353.353,0,0,0,.255-.6.362.362,0,0,0-.255-.109Zm42.919.7a.352.352,0,1,0,0-.7h-.7a.352.352,0,0,0-.255.594.348.348,0,0,0,.255.11Zm-4.223,0a.352.352,0,1,0,0-.7h-.7a.351.351,0,0,0-.252.594.347.347,0,0,0,.252.11Zm-4.219,0a.352.352,0,0,0,0-.7h-.7a.352.352,0,0,0,0,.7Zm-4.223,0a.353.353,0,0,0,.256-.6.358.358,0,0,0-.256-.109h-.7a.352.352,0,0,0,0,.7Zm-4.219,0a.352.352,0,0,0,0-.7h-.706a.352.352,0,0,0,0,.7Zm-4.223,0a.353.353,0,0,0,.255-.6.357.357,0,0,0-.255-.109h-.7a.352.352,0,0,0,0,.7Zm-4.222,0a.352.352,0,0,0,0-.7h-.7a.352.352,0,1,0,0,.7Zm-4.222,0a.353.353,0,0,0,.256-.6.365.365,0,0,0-.256-.109h-.7a.352.352,0,0,0-.255.594.348.348,0,0,0,.255.11Zm-4.222,0a.353.353,0,0,0,.255-.6.357.357,0,0,0-.255-.109h-.7a.352.352,0,1,0,0,.7Zm-4.222,0a.352.352,0,0,0,0-.7h-.7a.351.351,0,0,0-.252.594.346.346,0,0,0,.252.11Z" transform="translate(72.462 60.735)" fill="#fff" fill-rule="evenodd"/>
    <path id="Trazado_113" data-name="Trazado 113" d="M723.689,152.512a.352.352,0,0,0,0,.7h.7a.352.352,0,1,0,0-.7Zm34.477.7a.353.353,0,0,0,.255-.6.359.359,0,0,0-.255-.109h-.705a.352.352,0,0,0,0,.7Zm-4.222,0a.353.353,0,0,0,.255-.6.357.357,0,0,0-.255-.109h-.7a.352.352,0,0,0,0,.7Zm-4.222,0a.353.353,0,0,0,.255-.6.359.359,0,0,0-.255-.109h-.7a.352.352,0,0,0,0,.7Zm-4.22,0a.353.353,0,0,0,.254-.6.357.357,0,0,0-.254-.109h-.7a.352.352,0,1,0,0,.7Zm-4.222,0a.353.353,0,0,0,.254-.6.358.358,0,0,0-.254-.109h-.7a.352.352,0,0,0,0,.7Zm-4.222,0a.352.352,0,0,0,0-.7h-.7a.352.352,0,0,0,0,.7Zm-4.223,0a.353.353,0,0,0,.255-.6.357.357,0,0,0-.255-.109h-.7a.352.352,0,0,0,0,.7Zm-4.221,0a.353.353,0,0,0,.255-.6.357.357,0,0,0-.255-.109h-.7a.352.352,0,0,0,0,.7Z" transform="translate(47.635 34.035)" fill="#fff" fill-rule="evenodd"/>
    <path id="Trazado_114" data-name="Trazado 114" d="M782.909,183.835a.352.352,0,1,0,0,.7h.7a.352.352,0,0,0,0-.7Zm34.475.7a.352.352,0,0,0,.255-.594.348.348,0,0,0-.255-.11h-.7a.353.353,0,0,0-.255.6.357.357,0,0,0,.255.109Zm-4.223,0a.352.352,0,1,0,0-.7h-.7a.352.352,0,0,0,0,.7Zm-4.219,0a.352.352,0,0,0,.255-.594.357.357,0,0,0-.255-.11h-.7a.353.353,0,0,0-.255.6.357.357,0,0,0,.255.109Zm-4.223,0a.352.352,0,1,0,0-.7h-.7a.353.353,0,0,0-.254.6.361.361,0,0,0,.254.109Zm-4.219,0a.352.352,0,0,0,0-.7h-.706a.353.353,0,0,0-.254.6.358.358,0,0,0,.254.109Zm-4.223,0a.352.352,0,1,0,0-.7h-.7a.353.353,0,0,0-.255.6.357.357,0,0,0,.255.109Zm-4.222,0a.352.352,0,0,0,0-.7h-.7a.354.354,0,0,0-.256.6.363.363,0,0,0,.256.109Zm-4.222,0a.352.352,0,0,0,.256-.594.356.356,0,0,0-.256-.11h-.7a.353.353,0,0,0-.255.6.357.357,0,0,0,.255.109Z" transform="translate(65.867 43.679)" fill="#fff" fill-rule="evenodd"/>
    <path id="Trazado_115" data-name="Trazado 115" d="M818.1,255.088c3.764-.086,8.084,2.519,11.066,7.127l1.011,1.564.072.005-.044.038,0-.005.069-2.374h5.2c.13,0,.26,0,.4,0h.022c3.663.1,7.782,2.685,10.654,7.125h0c4.206,6.505,4.206,14.637,0,18.067l-1.038.849-15.3,12.471h-5.4l2.025-5.209L814.9,276.293l-1.039-1.607c-4.094-6.329-4.2-14.2-.331-17.778l-.64-1.819Z" transform="translate(74.536 65.616)" fill-rule="evenodd" fill="url(#linear-gradient-9)"/>
    <path id="Trazado_116" data-name="Trazado 116" d="M809.741,256.621h0c4.206-3.431,11.092-.912,15.3,5.594l1.038,1.607,1.04-.849c4.206-3.431,11.094-.912,15.3,5.6h0c4.207,6.508,4.207,14.637,0,18.067l-1.038.849-15.3,12.471-15.3-23.662-1.038-1.607C805.533,268.18,805.533,260.049,809.741,256.621Z" transform="translate(73.265 65.616)" fill-rule="evenodd" fill="url(#linear-gradient-10)"/>
    <path id="Trazado_117" data-name="Trazado 117" d="M755.843,232.961q-1.126.665-2.244,1.337a1.407,1.407,0,1,0,1.453,2.409l.791-.472v-3.274Zm-7.923,8.183a1.407,1.407,0,1,0-1.525-2.365q-1.193.765-2.373,1.543a1.407,1.407,0,1,0,1.551,2.348q1.167-.769,2.346-1.526Zm-9.29,6.25A1.407,1.407,0,1,0,737,245.1q-1.155.814-2.306,1.641a1.408,1.408,0,1,0,1.652,2.28q1.134-.818,2.28-1.624Zm-9.011,6.644a1.407,1.407,0,1,0-1.722-2.225q-1.124.865-2.234,1.743a1.407,1.407,0,1,0,1.751,2.2q1.1-.867,2.205-1.722Zm-8.695,7.04a1.407,1.407,0,1,0-1.832-2.136q-1.073.916-2.141,1.843a1.408,1.408,0,0,0,1.461,2.362,1.386,1.386,0,0,0,.388-.239q1.059-.92,2.124-1.83Zm-8.34,7.459a1.406,1.406,0,1,0-1.93-2.046q-1.032.969-2.049,1.957a1.407,1.407,0,0,0,1.682,2.227,1.585,1.585,0,0,0,.276-.207q1-.973,2.022-1.932Zm-7.927,7.884a1.408,1.408,0,1,0-2.042-1.94c-.653.685-1.3,1.377-1.942,2.072a1.411,1.411,0,0,0,1.658,2.218,1.46,1.46,0,0,0,.418-.318c.624-.684,1.268-1.364,1.907-2.032Zm-7.447,8.319a1.409,1.409,0,0,0-1.754-2.138,1.465,1.465,0,0,0-.407.332q-.912,1.089-1.806,2.187a1.407,1.407,0,0,0,2.187,1.772q.881-1.083,1.78-2.153Zm-6.89,8.78a1.408,1.408,0,0,0-1.866-2.031,1.391,1.391,0,0,0-.409.378c-.56.764-1.107,1.535-1.653,2.307a1.408,1.408,0,0,0,2.306,1.617q.8-1.142,1.623-2.271Zm-6.216,9.244a1.407,1.407,0,0,0-2.051-1.852,1.353,1.353,0,0,0-.353.388c-.5.81-.982,1.617-1.462,2.434a1.407,1.407,0,1,0,2.429,1.42c.472-.8.95-1.6,1.437-2.391Zm-5.412,9.725a1.407,1.407,0,0,0-2.373-1.484,1.426,1.426,0,0,0-.15.241q-.636,1.279-1.239,2.569a1.409,1.409,0,0,0,1.76,1.911,1.392,1.392,0,0,0,.8-.735c.388-.838.793-1.673,1.2-2.5Zm-4.418,10.185a1.409,1.409,0,0,0-2.375-1.418,1.46,1.46,0,0,0-.269.45l-.379,1.046-.247.7-.326.95a1.409,1.409,0,0,0,2.405,1.359,1.381,1.381,0,0,0,.266-.472q.443-1.314.926-2.613Zm-3.2,10.6a1.408,1.408,0,0,0-2.591-1.014,1.433,1.433,0,0,0-.153.4l-.276,1.22-.146.693-.179.883a1.41,1.41,0,0,0,2.6.972,1.483,1.483,0,0,0,.163-.447l.169-.836c.131-.623.269-1.244.411-1.868Zm-1.719,10.91a1.407,1.407,0,1,0-2.805-.217l-.067.9-.043.681-.037.68-.026.6a1.408,1.408,0,1,0,2.813.107l.025-.575.035-.651.04-.654.064-.874Zm.044,11a1.408,1.408,0,0,0-2.718-.362,1.391,1.391,0,0,0-.085.628l.085.859.073.664.081.66.089.688a1.409,1.409,0,0,0,2.792-.061,1.357,1.357,0,0,0-.008-.356l-.082-.625-.077-.63-.069-.634-.081-.831Zm2.01,10.8a1.409,1.409,0,0,0-2.756.271,1.383,1.383,0,0,0,.051.506l.187.643.195.638.2.637.279.84a1.409,1.409,0,0,0,2.736-.4,1.394,1.394,0,0,0-.077-.527l-.259-.781-.194-.608-.184-.608-.179-.616Zm4.009,10.2a1.41,1.41,0,0,0-2.654.753,1.435,1.435,0,0,0,.156.547l.233.455.311.59.318.585.5.9a1.409,1.409,0,0,0,2.622-.817,1.39,1.39,0,0,0-.183-.59l-.475-.846-.3-.56-.3-.561-.233-.458Zm5.875,9.283a1.407,1.407,0,1,0-2.219,1.729l.613.785.421.521.424.519.345.411a1.41,1.41,0,0,0,2.422-1.316,1.427,1.427,0,0,0-.276-.506l-.326-.387-.409-.5-.4-.5-.6-.759Zm7.45,8.1a1.407,1.407,0,1,0-1.9,2.08l.757.687.515.458.872.753a1.407,1.407,0,1,0,1.819-2.148l-.836-.721-.494-.439-.738-.67Zm8.667,6.845a1.408,1.408,0,0,0-1.581,2.331l.649.437.6.395.6.388.543.348a1.408,1.408,0,0,0,1.866-2.048,1.323,1.323,0,0,0-.364-.33l-1.108-.713c-.4-.268-.81-.535-1.207-.808Zm9.536,5.625a1.408,1.408,0,1,0-1.273,2.511l.946.477c.537.267,1.074.53,1.615.787a1.407,1.407,0,1,0,1.2-2.546l-.9-.437c-.53-.262-1.057-.522-1.583-.793Zm10.148,4.513a1.409,1.409,0,0,0-1.385,2.412,1.5,1.5,0,0,0,.383.217q1.33.514,2.672.991a1.409,1.409,0,0,0,1.426-2.358,1.37,1.37,0,0,0-.492-.3q-1.309-.469-2.6-.967Zm10.56,3.513a1.409,1.409,0,0,0-1.464,2.256,1.384,1.384,0,0,0,.7.451c.913.26,1.831.511,2.748.751A1.408,1.408,0,0,0,730.787,415a1.483,1.483,0,0,0-.454-.211c-.9-.232-1.793-.477-2.684-.732Zm10.829,2.624a1.408,1.408,0,0,0-.938,2.621,1.382,1.382,0,0,0,.388.14q1.393.281,2.787.539a1.408,1.408,0,0,0,.5-2.771q-1.373-.253-2.743-.528Zm11.009,1.834a1.408,1.408,0,0,0-.766,2.675,1.353,1.353,0,0,0,.407.118q1.407.188,2.813.349a1.406,1.406,0,1,0,.319-2.794c-.926-.11-1.848-.225-2.773-.348Zm11.118,1.126a1.409,1.409,0,0,0-.728,2.663,1.44,1.44,0,0,0,.531.145c.942.067,1.885.126,2.828.182a1.408,1.408,0,1,0,.158-2.811c-.929-.056-1.859-.112-2.789-.179Zm11.164.481a1.407,1.407,0,1,0-.033,2.815q1.413.02,2.825.026a1.407,1.407,0,1,0,.009-2.813q-1.4-.008-2.8-.027Zm11.19-.107a1.41,1.41,0,0,0-.452,2.723,1.467,1.467,0,0,0,.552.089c.943-.03,1.886-.072,2.829-.115a1.407,1.407,0,0,0,.218-2.782,1.385,1.385,0,0,0-.353-.028q-1.4.065-2.794.112Zm11.168-.649a1.408,1.408,0,0,0-.116,2.788,1.46,1.46,0,0,0,.354.016q1.409-.118,2.815-.245a1.41,1.41,0,0,0,.2-2.773,1.447,1.447,0,0,0-.456-.033q-1.395.13-2.792.246Zm11.135-1.158a1.408,1.408,0,0,0-.2,2.75,1.431,1.431,0,0,0,.557.042c.935-.12,1.868-.243,2.8-.369a1.408,1.408,0,1,0-.382-2.79c-.927.126-1.852.248-2.78.366Zm11.079-1.632a1.408,1.408,0,0,0-.453,2.613,1.383,1.383,0,0,0,.929.161q1.395-.237,2.785-.483a1.407,1.407,0,0,0-.5-2.77q-1.381.245-2.762.479ZM827.35,414.5a1.407,1.407,0,1,0,.582,2.753q1.385-.286,2.765-.592a1.41,1.41,0,0,0,.007-2.748,1.445,1.445,0,0,0-.617,0c-.91.2-1.823.395-2.736.587Zm10.914-2.509a1.408,1.408,0,0,0,.237,2.766,1.447,1.447,0,0,0,.456-.038c.913-.233,1.826-.463,2.737-.7a1.409,1.409,0,0,0-.154-2.754,1.443,1.443,0,0,0-.56.031q-1.354.351-2.716.694Zm10.821-2.922a1.406,1.406,0,1,0,.789,2.7q1.359-.394,2.709-.8a1.409,1.409,0,0,0-.811-2.7q-1.34.4-2.686.8Zm10.7-3.317a1.389,1.389,0,0,0-.7.511,1.407,1.407,0,0,0,1.584,2.158c.9-.293,1.785-.6,2.679-.9a1.408,1.408,0,0,0-.336-2.733,1.39,1.39,0,0,0-.571.069q-1.328.451-2.659.891Zm10.58-3.7a1.408,1.408,0,0,0,.984,2.639q1.324-.49,2.646-.994a1.408,1.408,0,0,0-.522-2.72,1.43,1.43,0,0,0-.483.092q-1.312.5-2.625.983Zm10.446-4.069a1.407,1.407,0,1,0,1.069,2.6c.874-.354,1.746-.721,2.613-1.086a1.407,1.407,0,0,0-1.1-2.592q-1.289.543-2.586,1.075Zm10.293-4.438a1.409,1.409,0,0,0,.606,2.69,1.364,1.364,0,0,0,.553-.128q1.291-.579,2.574-1.177a1.408,1.408,0,0,0-.8-2.667,1.39,1.39,0,0,0-.388.118q-1.269.59-2.544,1.164Zm10.123-4.8a1.406,1.406,0,1,0,1.254,2.518c.845-.416,1.686-.842,2.527-1.271a1.407,1.407,0,1,0-1.28-2.506q-1.248.636-2.5,1.259Zm9.935-5.171a1.408,1.408,0,0,0,.94,2.616,1.385,1.385,0,0,0,.415-.15q1.238-.675,2.473-1.361a1.408,1.408,0,0,0-1.075-2.581,1.438,1.438,0,0,0-.3.123q-1.224.683-2.456,1.354Zm9.737-5.548a1.408,1.408,0,1,0,1.444,2.417q1.214-.724,2.425-1.461a1.407,1.407,0,1,0-1.473-2.4q-1.195.728-2.4,1.443Zm9.5-5.921a1.408,1.408,0,0,0,1.069,2.552,1.382,1.382,0,0,0,.475-.2c.791-.517,1.576-1.032,2.362-1.554a1.408,1.408,0,0,0-1.564-2.342q-1.165.775-2.341,1.543Zm9.253-6.307a1.407,1.407,0,0,0,1.641,2.286c.765-.549,1.53-1.1,2.291-1.656a1.406,1.406,0,1,0-1.658-2.271c-.757.549-1.513,1.1-2.274,1.64Zm8.968-6.7a1.409,1.409,0,0,0,1.5,2.365,1.716,1.716,0,0,0,.24-.156q1.112-.869,2.219-1.758a1.407,1.407,0,0,0-1.768-2.189c-.725.589-1.46,1.163-2.193,1.738Zm8.649-7.1a1.409,1.409,0,0,0,1.4,2.388,1.448,1.448,0,0,0,.438-.258q1.071-.928,2.133-1.862a1.407,1.407,0,0,0-1.866-2.107q-1.049.926-2.108,1.839Zm8.282-7.515a1.408,1.408,0,0,0,1.951,2.031q1.022-.981,2.032-1.972a1.409,1.409,0,0,0-1.635-2.253,1.482,1.482,0,0,0-.34.25q-1,.979-2.009,1.945Zm7.863-7.944a1.409,1.409,0,0,0,1.845,2.107,1.478,1.478,0,0,0,.213-.187q.969-1.038,1.921-2.086a1.407,1.407,0,1,0-2.085-1.891c-.628.691-1.257,1.377-1.9,2.057Zm7.374-8.387a1.408,1.408,0,0,0,2.179,1.784q.9-1.093,1.784-2.2a1.407,1.407,0,0,0-2.2-1.75q-.871,1.093-1.759,2.168Zm6.8-8.845a1.406,1.406,0,0,0,2.293,1.63c.552-.772,1.092-1.549,1.627-2.327a1.408,1.408,0,0,0-1.943-1.964,1.378,1.378,0,0,0-.378.375q-.791,1.15-1.6,2.286Zm6.11-9.313a1.406,1.406,0,1,0,2.42,1.435c.487-.815.964-1.63,1.435-2.452a1.409,1.409,0,0,0-2.061-1.826,1.389,1.389,0,0,0-.387.437q-.691,1.211-1.406,2.407Zm5.281-9.792a1.406,1.406,0,1,0,2.54,1.209c.412-.855.812-1.721,1.2-2.587a1.409,1.409,0,0,0-2.282-1.567,1.43,1.43,0,0,0-.292.428q-.567,1.267-1.167,2.518Zm4.262-10.25a1.407,1.407,0,0,0,2.255,1.522,1.382,1.382,0,0,0,.4-.6l.311-.9.235-.694.359-1.114a1.409,1.409,0,0,0-2.328-1.426,1.367,1.367,0,0,0-.356.583l-.348,1.07c-.175.519-.35,1.04-.53,1.556Zm3-10.65a1.409,1.409,0,0,0,2.671.845,1.519,1.519,0,0,0,.085-.273c.12-.564.232-1.129.341-1.7l.2-1.114a1.407,1.407,0,0,0-1.958-1.525,1.391,1.391,0,0,0-.814,1.05l-.2,1.065-.129.667-.2.981Zm1.482-10.926a1.409,1.409,0,0,0,2.747.5,1.52,1.52,0,0,0,.067-.368l.03-.611.029-.679.022-.677.02-.9a1.407,1.407,0,1,0-2.813-.024l-.02.844-.021.651-.027.651-.033.609Zm-.314-10.994a1.409,1.409,0,0,0,2.762.161,1.392,1.392,0,0,0,.029-.515l-.064-.535-.088-.66-.1-.659-.156-.993a1.406,1.406,0,0,0-2.529-.581,1.389,1.389,0,0,0-.246,1.057l.149.931.09.63.081.63.067.534Zm-2.3-10.735a1.407,1.407,0,0,0,2.677-.866l-.314-.965-.216-.634-.222-.632-.182-.49a1.406,1.406,0,1,0-2.635.984l.169.46.213.6.205.606.3.936Zm-4.3-10.1a1.409,1.409,0,0,0,2.635-.827,1.45,1.45,0,0,0-.165-.524l-.418-.757-.328-.579-.336-.574-.357-.6a1.407,1.407,0,0,0-2.392,1.483l.327.545.319.548.314.551.4.731Zm2.471-1.351-3.832-1.023,2.392-1.484,1.44,2.507Zm-8.591-7.771a1.407,1.407,0,1,0,2.183-1.775l-.438-.536-.433-.514-.437-.511-.559-.638a1.409,1.409,0,1,0-2.093,1.886l.523.6.418.488.413.492.421.514Zm-7.646-7.922a1.407,1.407,0,1,0,1.857-2.114l-.574-.5-.526-.449-.531-.445-.566-.464a1.407,1.407,0,1,0-1.758,2.2l.527.432.509.429.509.433.553.483Zm-8.8-6.66a1.407,1.407,0,1,0,1.521-2.369q-.844-.547-1.7-1.079l-.723-.443a1.408,1.408,0,0,0-1.447,2.417l.688.419.591.371,1.066.684Zm-9.648-5.464a1.408,1.408,0,0,0,1.236-2.529l-.834-.405q-.871-.412-1.745-.816a1.407,1.407,0,1,0-1.163,2.563c.84.386,1.678.779,2.506,1.188Zm-10.213-4.36a1.409,1.409,0,0,0,1.41-2.38,1.466,1.466,0,0,0-.443-.263c-.892-.328-1.788-.649-2.686-.955a1.407,1.407,0,0,0-1.709,1.958,1.388,1.388,0,0,0,.811.709c.876.3,1.75.611,2.618.931Zm-10.61-3.38a1.409,1.409,0,0,0,1.167-2.518,1.43,1.43,0,0,0-.43-.2q-1.371-.373-2.756-.721a1.407,1.407,0,1,0-.67,2.733c.9.225,1.8.46,2.689.7Zm-9.846-2.69a1.416,1.416,0,0,0,0-2.387Z" transform="translate(30.096 46.979)" fill="#fff" fill-rule="evenodd"/>
    <path id="Trazado_118" data-name="Trazado 118" d="M779.325,199.635l-1.156.521a1.407,1.407,0,0,0,1.156,2.565v-3.085Zm-7.648,6.6a1.408,1.408,0,0,0-.814-2.664,1.444,1.444,0,0,0-.387.12l-2.55,1.2a1.409,1.409,0,0,0,.721,2.673,1.446,1.446,0,0,0,.492-.132l2.539-1.2Zm-10.114,4.877a1.407,1.407,0,0,0-1.253-2.52c-.844.419-1.686.836-2.528,1.259a1.409,1.409,0,0,0,.885,2.642,1.535,1.535,0,0,0,.385-.129c.833-.422,1.673-.838,2.511-1.252ZM751.555,216.2a1.409,1.409,0,0,0-.783-2.648,1.433,1.433,0,0,0-.522.154c-.834.433-1.666.875-2.5,1.317a1.41,1.41,0,0,0,.6,2.648,1.425,1.425,0,0,0,.725-.163c.827-.438,1.651-.878,2.481-1.308Zm-9.888,5.311a1.408,1.408,0,0,0-.976-2.607,1.384,1.384,0,0,0-.387.146q-1.238.683-2.469,1.371a1.409,1.409,0,0,0,.986,2.6,1.474,1.474,0,0,0,.395-.15q1.222-.687,2.451-1.363ZM731.9,227.05a1.407,1.407,0,1,0-1.424-2.427l-2.431,1.424a1.407,1.407,0,1,0,1.431,2.423l2.425-1.42Zm-9.636,5.761a1.407,1.407,0,1,0-1.474-2.4q-1.207.738-2.4,1.486a1.407,1.407,0,1,0,1.491,2.387c.8-.494,1.588-.987,2.386-1.477Zm-9.491,5.99a1.407,1.407,0,1,0-1.534-2.359q-1.183.769-2.366,1.545A1.409,1.409,0,0,0,710,240.524a1.428,1.428,0,0,0,.425-.19q1.171-.771,2.348-1.533Zm-9.337,6.223a1.41,1.41,0,0,0-.794-2.567,1.394,1.394,0,0,0-.8.249q-1.163.8-2.325,1.6a1.409,1.409,0,0,0,1.38,2.44,1.869,1.869,0,0,0,.234-.132c.765-.535,1.536-1.063,2.307-1.592Zm-9.173,6.46A1.409,1.409,0,0,0,693,249.008a1.374,1.374,0,0,0-.392.2q-1.144.828-2.282,1.665A1.407,1.407,0,1,0,692,253.137q1.128-.832,2.266-1.653Zm-9,6.706a1.409,1.409,0,0,0-1.215-2.477,1.379,1.379,0,0,0-.5.246q-1.12.859-2.237,1.726a1.409,1.409,0,0,0,1.267,2.459,1.391,1.391,0,0,0,.467-.241q1.1-.861,2.218-1.713Zm-8.8,6.954a1.408,1.408,0,1,0-1.776-2.184l-1.2.985-.98.808a1.406,1.406,0,1,0,1.793,2.167c.722-.594,1.441-1.19,2.167-1.776Zm-8.586,7.205a1.407,1.407,0,0,0-1.847-2.123q-1.069.926-2.13,1.86a1.409,1.409,0,0,0,1.333,2.4,1.452,1.452,0,0,0,.534-.3c.7-.619,1.4-1.231,2.111-1.844Zm-8.359,7.472a1.407,1.407,0,1,0-1.917-2.059l-.994.922-1.075,1a1.409,1.409,0,0,0,1.456,2.342,1.45,1.45,0,0,0,.481-.3l-1.937-2.044,2.069-1.925-.132,3.969,2.049-1.911Zm-8.106,7.748a1.407,1.407,0,1,0-1.981-2l-1.131,1.125-.868.874a1.407,1.407,0,1,0,2,1.979l.859-.861,1.122-1.118Zm-7.818,8.025a1.408,1.408,0,0,0-1.839-2.112,1.631,1.631,0,0,0-.214.19l-1.05,1.123-.876.946a1.409,1.409,0,0,0,2.073,1.908l.865-.938,1.042-1.117Zm-7.5,8.316a1.408,1.408,0,0,0-1.873-2.072,1.5,1.5,0,0,0-.261.237l-.769.892-1.071,1.257a1.407,1.407,0,0,0,2.154,1.811l1.053-1.235.768-.891Zm-7.146,8.62a1.409,1.409,0,0,0-1.708-2.142,1.394,1.394,0,0,0-.5.4l-1.135,1.441-.608.787a1.407,1.407,0,0,0,1.893,2.03,1.455,1.455,0,0,0,.333-.311l.6-.774,1.124-1.431Zm-6.74,8.929a1.406,1.406,0,0,0-2.293-1.63q-.824,1.15-1.636,2.308a1.407,1.407,0,1,0,2.311,1.607l1.134-1.61.484-.676Zm-6.279,9.252a1.408,1.408,0,0,0-2.08-1.841,1.388,1.388,0,0,0-.3.335l-.409.641-.655,1.04-.446.715a1.407,1.407,0,0,0,2.395,1.478l.437-.7.647-1.024.408-.641Zm-5.748,9.584a1.411,1.411,0,0,0-1.606-2.042,1.387,1.387,0,0,0-.853.672L607,340.235l-.641,1.18a1.407,1.407,0,1,0,2.485,1.321l.624-1.147.718-1.295Zm-5.128,9.911a1.408,1.408,0,0,0-2.548-1.2l-.271.57-.483,1.037-.441.965a1.408,1.408,0,0,0,2.287,1.566,1.447,1.447,0,0,0,.276-.405l.433-.948.746-1.586Zm-4.409,10.241a1.408,1.408,0,0,0-1.708-1.852,1.393,1.393,0,0,0-.922.849l-.574,1.509-.424,1.16a1.406,1.406,0,1,0,2.652.936l.409-1.116.566-1.487Zm-3.564,10.54a1.407,1.407,0,0,0-2.71-.761l-.283.994-.283,1.021-.192.723a1.407,1.407,0,0,0,2.723.711l.184-.7.276-1,.284-.991ZM594.5,381.809a1.407,1.407,0,1,0-2.767-.51l-.2,1.1-.173,1.007-.114.708a1.409,1.409,0,0,0,2.607.927,1.444,1.444,0,0,0,.175-.493l.11-.681.166-.981.193-1.074ZM593.075,392.8a1.407,1.407,0,0,0-2.809-.178l-.055.791-.059.994-.05,1.067a1.407,1.407,0,1,0,2.812.093l.05-1.01.055-.965.056-.793Zm-.124,11.084a1.407,1.407,0,0,0-2.811.153l.068,1.165.071.97.058.721a1.408,1.408,0,0,0,2.8-.248l-.058-.687-.067-.94-.065-1.134Zm1.313,10.98a1.408,1.408,0,1,0-2.765.536l.067.352.191.943.2.946.127.564a1.409,1.409,0,0,0,2.733.034,1.429,1.429,0,0,0,.007-.67l-.118-.531-.195-.91-.182-.912-.065-.352Zm2.815,10.683a1.408,1.408,0,0,0-2.736.429,1.426,1.426,0,0,0,.078.5l.154.449.322.915.336.909.16.419a1.409,1.409,0,0,0,2.718-.579,1.384,1.384,0,0,0-.094-.439l-.149-.388-.323-.879-.313-.882-.153-.449Zm4.3,10.174a1.408,1.408,0,0,0-2.651.751,1.389,1.389,0,0,0,.154.547l.335.654.458.871.548,1.007a1.409,1.409,0,0,0,2.6-1.007,1.449,1.449,0,0,0-.148-.378l-.515-.948-.442-.84-.336-.657Zm5.679,9.5a1.407,1.407,0,0,0-2.418,1.422,1.623,1.623,0,0,0,.109.184l.629.895.576.8.468.63a1.389,1.389,0,0,0,1.061.562,1.408,1.408,0,0,0,1.193-2.248l-.449-.606-.559-.77-.609-.868Zm6.89,8.654a1.408,1.408,0,0,0-2.357,1.437,1.423,1.423,0,0,0,.284.463l.373.413.68.734.9.943a1.407,1.407,0,0,0,2.013-1.967l-.857-.9-.66-.713-.374-.411Zm7.924,7.757a1.41,1.41,0,0,0-2.2,1.656,1.466,1.466,0,0,0,.357.472l.978.844.789.664.411.339a1.409,1.409,0,0,0,2.115-1.785,1.36,1.36,0,0,0-.334-.394l-.391-.324-.765-.643-.959-.828Zm8.749,6.844A1.407,1.407,0,1,0,629,470.783l1.126.782.878.6.35.233a1.408,1.408,0,1,0,1.55-2.35l-1.187-.8-1.1-.766ZM640,474.435a1.409,1.409,0,0,0-1.809,2.083,1.439,1.439,0,0,0,.424.366l.664.378.957.536.854.47a1.407,1.407,0,1,0,1.346-2.471l-.834-.459-.939-.526-.663-.378Zm9.889,5.136a1.407,1.407,0,1,0-1.186,2.552l1.538.715,1.039.468a1.409,1.409,0,0,0,1.479-2.363,1.328,1.328,0,0,0-.331-.2l-1.018-.463-1.521-.7Zm10.26,4.376a1.409,1.409,0,0,0-1.384,2.412,1.433,1.433,0,0,0,.383.22l.722.279,1.1.416.825.3a1.407,1.407,0,0,0,.967-2.643l-.808-.3-1.087-.408-.722-.279Zm10.547,3.688a1.407,1.407,0,1,0-.844,2.685l1.373.429,1.342.407a1.409,1.409,0,0,0,.793-2.7l-1.308-.4-1.356-.422Zm10.753,3.058a1.408,1.408,0,1,0-.7,2.728l1.25.314,1.505.366a1.408,1.408,0,0,0,1.134-2.519,1.425,1.425,0,0,0-.487-.22L682.687,491l-1.235-.309Zm10.905,2.484a1.408,1.408,0,0,0-.938,2.622,1.373,1.373,0,0,0,.382.136l1.484.3,1.3.25a1.41,1.41,0,0,0,1.2-2.431,1.426,1.426,0,0,0-.688-.337l-1.27-.246-1.469-.29Zm11.016,1.959a1.408,1.408,0,0,0-.947,2.59,1.36,1.36,0,0,0,.524.192q1.4.218,2.8.419a1.408,1.408,0,0,0,.768-2.68,1.483,1.483,0,0,0-.373-.107q-1.387-.2-2.77-.413Zm11.1,1.481a1.407,1.407,0,0,0-.313,2.8l1.687.187,1.126.115a1.407,1.407,0,0,0,.285-2.8l-1.113-.115-1.673-.184Zm11.156,1.037a1.408,1.408,0,0,0-.487,2.757,1.545,1.545,0,0,0,.281.051l1.567.11,1.253.084a1.406,1.406,0,0,0,.18-2.807l-1.241-.085-1.554-.11Zm11.189.624a1.407,1.407,0,0,0-.1,2.812c.942.039,1.883.069,2.825.1a1.407,1.407,0,1,0,.081-2.813c-.934-.03-1.868-.059-2.8-.1Zm11.207.241a1.409,1.409,0,0,0-.428,2.75,1.457,1.457,0,0,0,.419.064c.942.005,1.886.008,2.825.005a1.41,1.41,0,0,0,.781-2.575,1.391,1.391,0,0,0-.794-.241q-1.4,0-2.8,0Zm11.211-.118a1.408,1.408,0,0,0,.082,2.815l1.355-.038,1.464-.046a1.409,1.409,0,0,0,.425-2.733,1.433,1.433,0,0,0-.518-.082l-1.454.048-1.354.037Zm11.209-.46a1.408,1.408,0,1,0,.162,2.811c.938-.051,1.879-.1,2.82-.166a1.408,1.408,0,0,0-.184-2.811c-.933.061-1.866.115-2.8.166Zm11.192-.78a1.409,1.409,0,0,0-.374,2.722,1.433,1.433,0,0,0,.612.084c.939-.077,1.876-.161,2.813-.246a1.407,1.407,0,1,0-.258-2.8c-.93.081-1.861.166-2.794.242Zm11.168-1.086a1.407,1.407,0,1,0,.311,2.8c.934-.1,1.872-.212,2.807-.322a1.406,1.406,0,1,0-.331-2.792c-.929.107-1.859.217-2.787.316Zm11.137-1.379a1.408,1.408,0,0,0,.383,2.79c.933-.126,1.865-.262,2.8-.394a1.407,1.407,0,0,0-.048-2.79,1.345,1.345,0,0,0-.354.005c-.926.129-1.852.263-2.778.388Zm11.1-1.661a1.408,1.408,0,0,0,.453,2.779c.93-.148,1.858-.3,2.787-.459a1.408,1.408,0,0,0-.031-2.779,1.383,1.383,0,0,0-.441.005c-.921.153-1.844.309-2.767.454ZM826.1,491.11a1.406,1.406,0,1,0,.521,2.764q1.389-.257,2.774-.527a1.407,1.407,0,0,0-.539-2.761q-1.377.265-2.756.524Zm11.007-2.192a1.408,1.408,0,0,0,.589,2.753q1.379-.29,2.761-.59a1.408,1.408,0,0,0-.064-2.761,1.379,1.379,0,0,0-.543.012c-.91.205-1.827.394-2.743.586Zm10.955-2.44a1.408,1.408,0,0,0,.154,2.765,1.362,1.362,0,0,0,.5-.029l2.744-.651a1.408,1.408,0,0,0-.13-2.761,1.426,1.426,0,0,0-.532.025l-2.735.651Zm10.9-2.689a1.409,1.409,0,0,0,.217,2.764,1.443,1.443,0,0,0,.49-.041q1.367-.353,2.731-.713a1.407,1.407,0,1,0-.726-2.718c-.9.237-1.807.475-2.712.708Zm10.834-2.924a1.406,1.406,0,1,0,.773,2.7l2.711-.772a1.408,1.408,0,0,0-.781-2.7l-2.7.772Zm10.776-3.162a1.407,1.407,0,0,0,.391,2.75,1.493,1.493,0,0,0,.436-.061c.9-.276,1.8-.549,2.7-.831a1.409,1.409,0,0,0-.408-2.75,1.476,1.476,0,0,0-.436.064c-.892.284-1.787.555-2.681.828Zm10.706-3.39a1.409,1.409,0,0,0,.239,2.731,1.45,1.45,0,0,0,.64-.056c.895-.294,1.787-.592,2.682-.889a1.409,1.409,0,0,0-.9-2.669q-1.328.445-2.661.884Zm10.628-3.612a1.406,1.406,0,1,0,.94,2.651l2.659-.942a1.41,1.41,0,0,0-.518-2.733,1.376,1.376,0,0,0-.432.084l-2.65.94Zm10.556-3.837a1.409,1.409,0,0,0,.666,2.716,1.517,1.517,0,0,0,.327-.082l2.637-1a1.408,1.408,0,0,0-.564-2.72,1.477,1.477,0,0,0-.441.09l-2.625.993Zm10.472-4.051a1.407,1.407,0,1,0,1.045,2.613q1.315-.522,2.622-1.053a1.407,1.407,0,0,0-1.065-2.605c-.866.352-1.736.7-2.6,1.045Zm10.389-4.264a1.408,1.408,0,0,0,.575,2.7,1.443,1.443,0,0,0,.522-.112c.867-.365,1.736-.732,2.6-1.105a1.408,1.408,0,0,0-1.117-2.586c-.858.37-1.72.736-2.579,1.1Zm10.3-4.481a1.41,1.41,0,0,0,.63,2.693,1.515,1.515,0,0,0,.521-.123q1.287-.575,2.573-1.16a1.408,1.408,0,0,0-.734-2.679,1.427,1.427,0,0,0-.432.116q-1.279.583-2.558,1.152Zm10.2-4.69a1.408,1.408,0,0,0,.719,2.672,1.329,1.329,0,0,0,.492-.132l2.545-1.211a1.409,1.409,0,0,0-.67-2.675,1.39,1.39,0,0,0-.549.137l-2.537,1.208Zm10.1-4.91a1.41,1.41,0,0,0,.836,2.652,1.513,1.513,0,0,0,.428-.139c.841-.418,1.685-.84,2.524-1.266a1.41,1.41,0,0,0-.879-2.642,1.429,1.429,0,0,0-.4.136q-1.252.632-2.507,1.258Zm9.992-5.127a1.407,1.407,0,1,0,1.312,2.489c.833-.437,1.664-.882,2.5-1.324a1.409,1.409,0,0,0-.781-2.643,1.363,1.363,0,0,0-.549.163l-2.477,1.314Zm9.868-5.345a1.407,1.407,0,0,0,1.372,2.456q1.234-.689,2.464-1.379a1.407,1.407,0,0,0-1.389-2.447q-1.22.689-2.447,1.369Zm9.745-5.569a1.408,1.408,0,0,0,1.021,2.584,1.431,1.431,0,0,0,.411-.161l2.426-1.435a1.409,1.409,0,0,0-1.081-2.57,1.472,1.472,0,0,0-.358.153l-2.418,1.428Zm9.615-5.8a1.409,1.409,0,0,0,1.035,2.573,1.39,1.39,0,0,0,.447-.182q1.2-.743,2.4-1.494a1.407,1.407,0,1,0-1.5-2.382c-.791.5-1.587.994-2.379,1.484Zm9.466-6.025a1.409,1.409,0,0,0,1.067,2.554,1.436,1.436,0,0,0,.477-.2q1.181-.771,2.357-1.554a1.408,1.408,0,0,0-1.176-2.522,1.493,1.493,0,0,0-.383.179q-1.169.779-2.342,1.543Zm9.315-6.258a1.408,1.408,0,1,0,1.6,2.314q1.161-.8,2.319-1.614a1.408,1.408,0,0,0-.832-2.557,1.392,1.392,0,0,0-.789.255c-.765.539-1.533,1.07-2.3,1.6Zm9.146-6.5a1.409,1.409,0,0,0,1.182,2.5,1.454,1.454,0,0,0,.483-.23q1.142-.832,2.277-1.673a1.409,1.409,0,0,0-1.683-2.259q-1.126.836-2.259,1.664Zm8.971-6.743a1.407,1.407,0,1,0,1.723,2.225c.744-.575,1.488-1.157,2.227-1.737a1.409,1.409,0,0,0-1.5-2.366,1.969,1.969,0,0,0-.239.153q-1.1.867-2.21,1.725Zm8.767-6.987a1.406,1.406,0,1,0,1.794,2.166l1.038-.855,1.133-.943a1.408,1.408,0,0,0-1.473-2.366,1.355,1.355,0,0,0-.328.205l-1.125.934-1.04.859Zm8.559-7.252a1.408,1.408,0,0,0,1.419,2.375,1.428,1.428,0,0,0,.437-.26c.709-.621,1.417-1.241,2.12-1.868a1.409,1.409,0,0,0-1.367-2.391,1.383,1.383,0,0,0-.508.289q-1.049.93-2.1,1.855Zm8.32-7.512a1.408,1.408,0,0,0,1.639,2.26,1.591,1.591,0,0,0,.289-.209c.685-.643,1.374-1.287,2.057-1.938a1.408,1.408,0,0,0-1.521-2.312,1.363,1.363,0,0,0-.424.279q-1.016.965-2.04,1.921Zm8.061-7.786a1.407,1.407,0,1,0,2,1.981l.908-.912,1.082-1.1a1.389,1.389,0,0,0,.392-.855,1.406,1.406,0,0,0-2.408-1.106l-1.066,1.08-.906.91Zm7.771-8.072a1.409,1.409,0,0,0,1.086,2.359,1.392,1.392,0,0,0,.985-.454l.809-.871,1.1-1.211a1.407,1.407,0,1,0-2.089-1.886l-1.085,1.191-.81.871Zm7.452-8.364a1.407,1.407,0,0,0,2.144,1.824q.92-1.077,1.827-2.162a1.407,1.407,0,0,0-2.163-1.8q-.9,1.073-1.807,2.138Zm7.09-8.667a1.407,1.407,0,0,0,2.218,1.732l.865-1.116.87-1.129a1.409,1.409,0,0,0-1.843-2.06,1.455,1.455,0,0,0-.405.364l-.849,1.105-.855,1.1Zm6.673-8.979a1.407,1.407,0,1,0,2.3,1.619l.938-1.341.679-.983a1.407,1.407,0,1,0-2.32-1.592l-.671.97-.927,1.326Zm6.2-9.3a1.409,1.409,0,0,0,2.015,1.89,1.374,1.374,0,0,0,.372-.4l.783-1.257.709-1.159a1.407,1.407,0,1,0-2.413-1.449l-.691,1.129-.776,1.242Zm5.658-9.629a1.408,1.408,0,0,0,2.269,1.627,1.443,1.443,0,0,0,.208-.288l.449-.825.556-1.04.334-.633a1.407,1.407,0,1,0-2.494-1.3l-.872,1.639-.449.823Zm5.029-9.97a1.408,1.408,0,0,0,2.557,1.181l.489-1.074.68-1.522a1.408,1.408,0,0,0-2.3-1.542,1.362,1.362,0,0,0-.284.421l-.66,1.484-.484,1.052Zm4.286-10.279a1.407,1.407,0,0,0,2.646.96l.334-.9.367-1.029.256-.736a1.407,1.407,0,0,0-2.522-1.206,1.668,1.668,0,0,0-.139.286l-.248.715-.362,1.007-.332.906Zm3.424-10.6a1.407,1.407,0,0,0,2.717.736l.366-1.364.356-1.4a1.41,1.41,0,0,0-2.3-1.384,1.392,1.392,0,0,0-.432.721l-.344,1.346-.36,1.341Zm2.411-10.846a1.407,1.407,0,0,0,2.514,1.071,1.361,1.361,0,0,0,.263-.613l.227-1.392.151-1.007.06-.421a1.409,1.409,0,0,0-2.663-.8,1.432,1.432,0,0,0-.127.422l-.055.4-.149.978-.221,1.367Zm1.24-11.028a1.407,1.407,0,1,0,2.811.15l.05-1.041.04-.99.021-.825a1.408,1.408,0,1,0-2.815-.061l-.021.8-.037.959-.05,1.012Zm-.089-11.066a1.408,1.408,0,0,0,2.8.086,1.574,1.574,0,0,0,.008-.3l-.027-.385-.078-.967-.09-.968-.056-.532a1.408,1.408,0,0,0-2.8.313l.052.5.089.934.078.936.026.386Zm-1.539-10.947a1.407,1.407,0,1,0,2.749-.6l-.11-.519-.211-.94-.222-.936-.1-.4a1.408,1.408,0,0,0-2.727.7l.09.361.216.905.2.908.11.519ZM1126.3,229.2a1.408,1.408,0,0,0,2.715-.334,1.393,1.393,0,0,0-.081-.654l-.229-.619-.344-.908-.459-1.148a1.408,1.408,0,0,0-2.7.425,1.368,1.368,0,0,0,.1.659l.432,1.084.336.876.227.617Zm-4.515-10.081a1.408,1.408,0,0,0,2.467-1.358l-.449-.83-.48-.858-.458-.8a1.409,1.409,0,0,0-2.622.783,1.431,1.431,0,0,0,.188.632l.442.768.462.83.45.831Zm-5.876-9.38a1.407,1.407,0,1,0,2.272-1.661l-.775-1.054-.6-.787-.347-.446a1.407,1.407,0,0,0-2.214,1.737l.327.42.578.764.568.766.188.262Zm-7.057-8.52a1.408,1.408,0,0,0,2.276-1.6,1.392,1.392,0,0,0-.245-.347l-.554-.587-.7-.722-.734-.744a1.408,1.408,0,0,0-1.972,2.01l.695.7.68.7.556.586Zm-8.064-7.618a1.407,1.407,0,1,0,1.8-2.163l-.438-.368-.794-.657-.976-.786a1.409,1.409,0,0,0-2.146,1.7,1.428,1.428,0,0,0,.407.517l.934.752.774.638.438.369Zm-8.857-6.7a1.409,1.409,0,0,0,1.919-2,1.371,1.371,0,0,0-.351-.333l-.565-.385-.888-.591-.922-.6a1.407,1.407,0,1,0-1.507,2.376l.882.574.865.577.568.385Zm-9.483-5.834a1.407,1.407,0,1,0,1.365-2.46l-1.078-.594-.974-.524-.454-.239a1.407,1.407,0,0,0-1.3,2.494l1.388.743,1.057.581Zm-9.943-5.01a1.409,1.409,0,0,0,1.479-2.363,1.441,1.441,0,0,0-.331-.207l-1-.45-1.593-.7a1.407,1.407,0,0,0-1.112,2.586l1.555.684,1,.451Zm-10.319-4.27a1.407,1.407,0,1,0,.984-2.637l-1.318-.488-1.351-.487a1.407,1.407,0,1,0-.93,2.656l1.314.473,1.3.481Zm-10.572-3.584a1.41,1.41,0,0,0,1.215-2.5,1.459,1.459,0,0,0-.407-.195l-.884-.268-1.176-.349-.654-.19a1.407,1.407,0,0,0-.776,2.706l1.8.528.884.268Zm-10.781-2.966a1.407,1.407,0,1,0,.663-2.735q-1.373-.337-2.753-.659a1.409,1.409,0,0,0-1.069,2.561,1.436,1.436,0,0,0,.438.183q1.364.316,2.72.65Zm-10.926-2.4a1.407,1.407,0,1,0,.526-2.765l-1.062-.205-1.719-.318a1.407,1.407,0,1,0-.494,2.77l1.688.314,1.061.2Zm-11.037-1.885a1.407,1.407,0,0,0,.408-2.785l-1.706-.248-1.092-.152a1.409,1.409,0,0,0-.857,2.635,1.382,1.382,0,0,0,.476.153c.923.129,1.848.259,2.77.4Zm-11.1-1.41a1.409,1.409,0,0,0,.678-2.7,1.424,1.424,0,0,0-.4-.1l-1.334-.139-1.479-.145a1.407,1.407,0,0,0-.791,2.641,1.383,1.383,0,0,0,.535.161l1.452.143,1.335.14Zm-11.163-.972a1.407,1.407,0,1,0,.179-2.808l-1.25-.084-1.572-.1a1.407,1.407,0,1,0-.153,2.811l1.543.094,1.253.084Zm-11.2-.565a1.409,1.409,0,0,0,.543-2.724,1.433,1.433,0,0,0-.451-.089l-1.453-.044-1.371-.037a1.407,1.407,0,1,0-.069,2.813l1.36.037,1.441.044Zm-11.207-.184a1.409,1.409,0,0,0,.464-2.736,1.43,1.43,0,0,0-.468-.077c-.94,0-1.882,0-2.826.009a1.409,1.409,0,0,0-.615,2.667,1.394,1.394,0,0,0,.641.149q1.4-.012,2.8-.012Zm-11.213.173a1.409,1.409,0,0,0,.428-2.732,1.469,1.469,0,0,0-.522-.081l-1.466.048v2.815C961.948,158.022,962.467,158.008,962.986,157.991Z" transform="translate(6.614 34.803)" fill="#fff" fill-rule="evenodd"/>
    <path id="Trazado_119" data-name="Trazado 119" d="M975.139,196.1h0a5.6,5.6,0,0,1-1.237.255l-6.887,1.414-4.537-8.215,5.7-.415-51.881-30.3c-22.29-13.016-18.1-49.155-18.1-70.9a7.4,7.4,0,0,1-2.868.888c-1.946-.292-7.494-2.921-7.494-2.921l1.424-7.561,6.781-1.305h0a7.456,7.456,0,0,1,6.231,1.012L969,117.024c6.027,3.518,10.961,13.015,10.961,21.1v48.63C979.96,191.79,978.044,195.138,975.139,196.1Z" transform="translate(98.279 10.703)" fill-rule="evenodd" fill="url(#linear-gradient-11)"/>
    <path id="Trazado_120" data-name="Trazado 120" d="M895.7,79.2l66.732,38.971c6.027,3.52,10.961,13.015,10.961,21.1V187.9c0,8.085-4.935,11.818-10.961,8.3l-59.591-34.8c-13.985-8.166-18.1,3.755-18.1,3.755V87.5C884.74,79.417,889.673,75.685,895.7,79.2Z" transform="translate(97.328 11.057)" fill-rule="evenodd" fill="url(#linear-gradient-12)"/>
    <path id="Trazado_121" data-name="Trazado 121" d="M905.561,102.776c4.219-.1,9.069,2.825,12.409,7.994l1.135,1.755.082.005-.051.042,0-.005.081-2.662h5.832c.146,0,.294-.005.442,0h.027c4.108.115,8.728,3.012,11.949,7.992h0c4.72,7.3,4.72,16.42,0,20.268l-1.164.951-17.163,13.99h-6.053l2.272-5.844-13.382-20.7-1.167-1.8c-4.593-7.1-4.715-15.929-.37-19.945l-.718-2.042h5.842Z" transform="translate(101.185 18.721)" fill-rule="evenodd" fill="url(#linear-gradient-13)"/>
    <path id="Trazado_122" data-name="Trazado 122" d="M896.181,104.493h0c4.719-3.846,12.443-1.023,17.163,6.277l1.164,1.8,1.165-.95c4.719-3.848,12.443-1.024,17.162,6.275h0c4.72,7.3,4.72,16.42,0,20.268l-1.164.951-17.163,13.99-17.163-26.542-1.164-1.8C891.461,117.461,891.461,108.341,896.181,104.493Z" transform="translate(99.761 18.721)" fill-rule="evenodd" fill="url(#linear-gradient-14)"/>
  </g>
</svg>
