<svg xmlns="http://www.w3.org/2000/svg" width="159.297" height="37.808" viewBox="0 0 159.297 37.808">
  <g id="Grupo_27" data-name="Grupo 27" opacity="0.57">
    <path id="Trazado_126" data-name="Trazado 126" d="M1035.567,954.081q-31.549,0-63.1.008a16.047,16.047,0,0,1-7.831-1.823,15.878,15.878,0,0,1-8.606-12.4,14.5,14.5,0,0,1-.122-1.839c-.015-1.937-.02-3.874,0-5.811a16.161,16.161,0,0,1,13.235-15.64,17.346,17.346,0,0,1,2.986-.272q63.337-.02,126.673-.027a16.331,16.331,0,0,1,15.649,11.428,14.426,14.426,0,0,1,.687,4.1c.019,2.414.146,4.843-.059,7.241-.569,6.673-4.076,11.293-10.206,13.922a14.205,14.205,0,0,1-5.525,1.106c-.365,0-.729.006-1.094.006Zm-.011-2.072q31.548,0,63.1,0a19.762,19.762,0,0,0,2.249-.115,14.1,14.1,0,0,0,12.394-13.911c.015-1.891.051-3.784-.009-5.673a13.822,13.822,0,0,0-7.126-12.078,14.06,14.06,0,0,0-7.389-1.868q-56.089.014-112.179.006c-4.831,0-9.662-.007-14.492.007a16.446,16.446,0,0,0-2.383.16A14.058,14.058,0,0,0,957.8,931.883c-.073,2.185-.079,4.377,0,6.561a13.623,13.623,0,0,0,5.86,10.914,13.956,13.956,0,0,0,8.521,2.657Q1003.87,952,1035.555,952.009Z" transform="translate(-955.896 -916.281)" fill="#fff"/>
    <path id="Trazado_127" data-name="Trazado 127" d="M1125.028,1032.335h-4.889v-17.969c.215-.018.412-.047.608-.047,1.367,0,2.734.02,4.1-.014a1.021,1.021,0,0,1,.984.552q3.5,5.344,7.031,10.67a1.981,1.981,0,0,0,.269.393c.175.159.38.391.576.4.32.006.4-.327.438-.6a4.89,4.89,0,0,0,.031-.681q0-4.922,0-9.843v-.834h4.881v17.977c-.194.017-.389.048-.585.049-1.048.005-2.1-.023-3.144.014a1.068,1.068,0,0,1-1.048-.558q-3.781-5.732-7.6-11.44a5.259,5.259,0,0,0-.448-.6.662.662,0,0,0-.732-.245.689.689,0,0,0-.449.631,5.314,5.314,0,0,0-.024.682q0,5.332,0,10.663Z" transform="translate(-1105.755 -1005.72)" fill="#fff"/>
    <path id="Trazado_128" data-name="Trazado 128" d="M2254.151,1021.321v-6.513h4.854V1032.8h-4.822l-.114-.768c-.261.133-.481.24-.7.356a7.97,7.97,0,0,1-6.358.462,4.051,4.051,0,0,1-2.714-2.689,10.247,10.247,0,0,1-.2-6.315,4.87,4.87,0,0,1,4.167-3.555,7.449,7.449,0,0,1,5.578.951A1.448,1.448,0,0,0,2254.151,1021.321Zm-.027,5.481c0-.978-.012-1.957.007-2.935a1.059,1.059,0,0,0-.35-.846,2.742,2.742,0,0,0-2.954-.686,2.392,2.392,0,0,0-1.612,2.383c-.044,1.25-.028,2.5,0,3.753a3.364,3.364,0,0,0,.747,2.083,1.851,1.851,0,0,0,2.181.7,11.169,11.169,0,0,0,1.56-.809.829.829,0,0,0,.433-.845C2254.1,1028.668,2254.125,1027.735,2254.125,1026.8Z" transform="translate(-2130.913 -1006.179)" fill="#fff"/>
    <path id="Trazado_129" data-name="Trazado 129" d="M2035.041,1084.369h-4.811c-.139-.5-.19-11.021-.062-12.127a30.225,30.225,0,0,1,4.842-.028c.018.3.036.614.056.969a.85.85,0,0,0,.245-.066,11.256,11.256,0,0,1,5.189-1.746,5.424,5.424,0,0,1,4.662,1.815,3.463,3.463,0,0,1,.97,2.476c-.019,2.687-.006,5.374-.008,8.062,0,.2-.017.4-.027.646h-4.861c-.012-.249-.034-.488-.034-.728,0-2.095,0-4.19-.007-6.285a5.423,5.423,0,0,0-.121-1.217,3.023,3.023,0,0,0-3.265-2.4,2.944,2.944,0,0,0-2.752,2.882c-.023.295-.015.592-.015.888q0,3.04,0,6.08Z" transform="translate(-1936.016 -1057.761)" fill="#fff"/>
    <path id="Trazado_130" data-name="Trazado 130" d="M1492.36,1084.562H1487.6c-.153-.468-.2-11.182-.052-12.164h4.777c.025.337.049.663.078,1.058.348-.2.628-.388.924-.541a11.686,11.686,0,0,1,4.628-1.333,5.407,5.407,0,0,1,4.557,1.913,3.3,3.3,0,0,1,.89,2.236q0,4.238,0,8.477c0,.09-.016.18-.033.366-1.6.06-3.2.012-4.871.03v-.818c0-2.1.017-4.193-.012-6.289a5.058,5.058,0,0,0-.263-1.6,2.959,2.959,0,0,0-3.262-1.918,2.836,2.836,0,0,0-2.511,2.5,7.077,7.077,0,0,0-.08,1.088c-.007,2.073,0,4.147,0,6.221Z" transform="translate(-1440.899 -1057.969)" fill="#fff"/>
    <path id="Trazado_131" data-name="Trazado 131" d="M2456.7,1085.284a9.228,9.228,0,0,1-5.395-1.7,8.091,8.091,0,0,1-1.529-1.45,5.634,5.634,0,0,1,.009-7.187,7.267,7.267,0,0,1,2.714-2.136,9.647,9.647,0,0,1,8.571.092,7.253,7.253,0,0,1,2.4,1.886,5.684,5.684,0,0,1-.022,7.564,8.193,8.193,0,0,1-4.787,2.7C2458.017,1085.175,2457.354,1085.207,2456.7,1085.284Zm-2.455-6.665c0,.955-.013,1.91,0,2.865a2.451,2.451,0,1,0,4.9.012q.039-2.865,0-5.731a2.451,2.451,0,1,0-4.9.056C2454.233,1076.754,2454.244,1077.686,2454.244,1078.619Z" transform="translate(-2317.764 -1058.224)" fill="#fff"/>
    <path id="Trazado_132" data-name="Trazado 132" d="M1830.139,1078.687h-10.681c0,1.079-.063,2.083.015,3.074a2.4,2.4,0,0,0,2.582,2.2,2.443,2.443,0,0,0,2.294-2.434c.009-.295,0-.59,0-.873a31.779,31.779,0,0,1,5.307-.072c-.08.2-.142.385-.23.56a6.634,6.634,0,0,1-1.929,2.271,9.482,9.482,0,0,1-11.212-.034,7.742,7.742,0,0,1-1.536-1.63,5.554,5.554,0,0,1,.021-6.465,6.852,6.852,0,0,1,2.468-2.216,9.439,9.439,0,0,1,9.281-.017,6.4,6.4,0,0,1,3.346,4.041C1830,1077.56,1830.035,1078.058,1830.139,1078.687Zm-5.8-1.881c0-.488.03-.9-.006-1.3a2.438,2.438,0,0,0-4.786-.39,4.126,4.126,0,0,0-.05,1.692Z" transform="translate(-1738.595 -1058.212)" fill="#fff"/>
    <path id="Trazado_133" data-name="Trazado 133" d="M1692.658,1046.9v1.345c-1.158.04-2.309,0-3.557.027-.031.83-.011,1.64-.015,2.45s0,1.6,0,2.393v7.3a25.088,25.088,0,0,1-4.914.052v-12.192H1680.6v-1.414h3.536v-1.638c1.659-.082,3.26-.028,4.923-.039v1.621C1690.281,1046.944,1691.459,1046.787,1692.658,1046.9Z" transform="translate(-1617.135 -1033.889)" fill="#fff"/>
    <path id="Trazado_134" data-name="Trazado 134" d="M1384.143,1080.776h4.771c.14.483.191,11.074.057,12.183h-4.828Z" transform="translate(-1346.637 -1066.37)" fill="#fff"/>
    <path id="Trazado_135" data-name="Trazado 135" d="M1383.879,1018.7c-.02-.207-.044-.338-.044-.468,0-.974,0-1.949,0-2.969h4.86v3.395C1387.1,1018.742,1385.508,1018.671,1383.879,1018.7Z" transform="translate(-1346.354 -1006.593)" fill="#fff"/>
  </g>
</svg>
