<svg xmlns="http://www.w3.org/2000/svg" width="149.337" height="31" viewBox="0 0 149.337 31">
  <g id="Grupo_168" data-name="Grupo 168" opacity="0.57">
    <path id="Trazado_136" data-name="Trazado 136" d="M1220.078,285.962q.009,15.466.018,30.932h-44.511c0-9.976.012-19.952-.019-29.928,0-.847.2-1.074,1.069-1.072q21.2.045,42.4.023C1219.384,285.917,1219.731,285.947,1220.078,285.962Zm-41.64,15.324c0,3.9.033,7.8-.025,11.706-.013.878.261,1.052,1.061,1.007,1.169-.066,2.345-.05,3.516,0,.624.024.8-.165.79-.789-.039-2.233.01-4.469-.031-6.7-.011-.633.186-.778.792-.769a42.732,42.732,0,0,0,5.41-.162,6.752,6.752,0,0,0,6.182-5.161,13.841,13.841,0,0,0,.279-5.621,6.517,6.517,0,0,0-6.445-5.906c-3.545-.243-7.1-.074-10.642-.158-.795-.019-.908.257-.9.948C1178.454,293.545,1178.438,297.416,1178.438,301.287Zm18.844-.17a32.289,32.289,0,0,0,.386,5.085c.625,3.67,2.341,6.506,6.183,7.565a15.769,15.769,0,0,0,7.25.194,7.363,7.363,0,0,0,5.656-4.276c.208-.459.22-.7-.278-.947-.9-.454-1.763-.984-2.641-1.483-1.255-.713-1.245-.706-2.114.417-1.346,1.741-3.205,2.019-5.209,1.663a3.85,3.85,0,0,1-3.24-3.278,20.714,20.714,0,0,1,.082-9.256,3.75,3.75,0,0,1,2.523-2.836c1.988-.677,5.271-.341,6.217,2.124.13.34.3.4.63.2,1.352-.814,2.708-1.621,4.087-2.388.466-.259.315-.5.14-.822a8.187,8.187,0,0,0-5.065-4.128,15.206,15.206,0,0,0-6.679-.344,8.243,8.243,0,0,0-7.219,6.544A26.731,26.731,0,0,0,1197.283,301.117Z" transform="translate(-1175.566 -285.894)" fill="#fff"/>
    <path id="Trazado_137" data-name="Trazado 137" d="M1969.677,326.434c1.173-3.767,2.336-7.5,3.5-11.225.392-1.259.786-2.517,1.16-3.781.135-.455.28-.727.882-.707,1.836.058,3.676.037,5.514.01.489-.007.637.118.636.621q-.024,11.99,0,23.98c0,.584-.233.66-.723.649-1.2-.026-2.41-.049-3.611.007-.678.031-.831-.188-.83-.838,0-4.5-.035-9-.06-13.5a1.361,1.361,0,0,0-.218-.865c-.095.3-.192.593-.285.89-1.4,4.494-2.813,8.986-4.194,13.487-.183.6-.417.906-1.105.825-.87-.1-1.963.333-2.57-.171-.558-.464-.623-1.524-.884-2.328-1.342-4.141-2.678-8.285-4.2-12.429,0,.251,0,.5,0,.754-.052,4.437-.126,8.874-.137,13.311,0,.732-.215.908-.906.865a22.265,22.265,0,0,0-2.85,0c-.708.047-.9-.159-.9-.877,0-4.783-.058-9.567-.088-14.35-.02-3.084-.009-6.168-.05-9.252-.008-.6.124-.8.765-.783,1.8.047,3.613.052,5.418,0,.636-.019.86.211,1.029.768,1.447,4.776,2.919,9.545,4.381,14.317A1.006,1.006,0,0,0,1969.677,326.434Z" transform="translate(-1868.533 -307.888)" fill="#fff"/>
    <path id="Trazado_138" data-name="Trazado 138" d="M1605.724,319.843c1.743,0,3.486-.005,5.229.005.274,0,.664-.163.643.4-.093,2.575.033,5.176-.664,7.689-1.093,3.942-3.647,6.024-7.782,6.5a16.565,16.565,0,0,1-5.111-.133,8.159,8.159,0,0,1-6.875-6.913,28.609,28.609,0,0,1,.059-11.624c.966-4.376,4.021-6.721,8.534-6.888a13.857,13.857,0,0,1,6.257.742,8.025,8.025,0,0,1,4.157,3.819c.194.388.167.573-.233.789q-1.915,1.035-3.787,2.148c-.4.24-.6.133-.832-.2-1.373-1.994-3.327-2.471-5.591-2.041a3.731,3.731,0,0,0-3.224,3.255,28.631,28.631,0,0,0-.14,8.371,4.761,4.761,0,0,0,7.1,3.568,5.741,5.741,0,0,0,2.6-5.017c-.082-.489-.4-.307-.636-.309-1.648-.016-3.3-.038-4.943.007-.6.016-.758-.155-.728-.732a28.042,28.042,0,0,0,0-2.831c-.025-.523.175-.618.647-.611C1602.175,319.858,1603.95,319.843,1605.724,319.843Z" transform="translate(-1543.258 -306.222)" fill="#fff"/>
    <path id="Trazado_139" data-name="Trazado 139" d="M2345.562,336.067c-1.72,0-3.365-.02-5.008.012-.542.01-.6-.371-.743-.7-1-2.34-2-4.677-2.962-7.032a.957.957,0,0,0-1.119-.717c-.781.068-1.81-.239-2.291.152-.509.413-.146,1.473-.166,2.249-.046,1.731-.077,3.462-.06,5.193.006.634-.146.89-.841.859-1.266-.056-2.536-.038-3.8-.005-.506.013-.637-.154-.635-.642q.025-11.993.008-23.986c0-.5.145-.632.635-.622,3.579.072,7.162-.106,10.739.176,4.01.315,6.376,2.74,6.5,6.721a21.857,21.857,0,0,1-.178,3.674,7.353,7.353,0,0,1-3.214,5.13c-.5.353-.506.638-.292,1.141,1.142,2.687,2.251,5.389,3.369,8.086A2.467,2.467,0,0,1,2345.562,336.067Zm-12.287-16.824c0,1.037.021,2.075-.01,3.112-.013.449.115.592.578.581,1.392-.033,2.787.014,4.177-.033a2.4,2.4,0,0,0,2.468-2.157,8.312,8.312,0,0,0-.006-2.909,2.4,2.4,0,0,0-2.653-2.268c-1.329-.024-2.659.011-3.988-.021-.464-.011-.59.135-.577.583C2333.3,317.168,2333.275,318.206,2333.275,319.243Z" transform="translate(-2196.489 -307.983)" fill="#fff"/>
    <path id="Trazado_140" data-name="Trazado 140" d="M2177.9,323.327c0-3.9.014-7.807-.013-11.71,0-.64.055-.914.837-.906,4.723.046,9.446.039,14.169.005.692-.005.841.2.809.839a30.187,30.187,0,0,0,0,3.3c.041.694-.207.811-.846.8-2.916-.035-5.833.017-8.748-.037-.785-.015-.939.241-.9.94a23.625,23.625,0,0,1,0,3.114c-.062.791.251.9.947.893,2.694-.037,5.389.006,8.083-.03.663-.009.959.083.9.844a21.189,21.189,0,0,0,0,3.208c.062.8-.261.9-.95.889-2.726-.035-5.452,0-8.178-.027-.582-.006-.83.09-.8.749.059,1.351.055,2.708,0,4.059-.026.672.107.9.856.891,2.947-.052,5.9-.006,8.843-.034.59-.006.831.1.8.754-.06,1.13-.041,2.266-.006,3.4.017.515-.108.7-.671.7-4.754-.022-9.51-.031-14.264.007-.733.006-.731-.332-.73-.853q.015-5.9.006-11.8Z" transform="translate(-2063.56 -307.88)" fill="#fff"/>
    <path id="Trazado_141" data-name="Trazado 141" d="M1774.878,310.563c.944,0,2.138-.347,2.76.1s.689,1.673.966,2.568c2.228,7.2,4.439,14.4,6.686,21.585.229.731.16.969-.672.923-1.232-.067-2.472-.049-3.706,0-.6.022-.9-.121-1.063-.742-.273-1.05-.24-2.508-1.03-3.008s-2.146-.141-3.252-.147c-1.394-.007-2.791.047-4.182-.022-.692-.034-.939.216-1.067.837-.164.8-.427,1.575-.623,2.367-.117.471-.281.747-.875.719-1.265-.059-2.535-.035-3.8-.01-.527.01-.756-.066-.569-.676q3.684-12.017,7.324-24.048a.613.613,0,0,1,.729-.522c.791.024,1.584.007,2.376.007Zm-2.871,16.3h5.5l-2.6-8.944Z" transform="translate(-1697.221 -307.635)" fill="#fff"/>
    <path id="Trazado_142" data-name="Trazado 142" d="M2477.661,316.313c-.073.043-.113.086-.151.085a1.787,1.787,0,0,1-.26-.044c.04-.027.077-.076.116-.077A2.006,2.006,0,0,1,2477.661,316.313Z" transform="translate(-2328.774 -312.81)" fill="#fff"/>
    <path id="Trazado_143" data-name="Trazado 143" d="M2477.16,319.442c-.1-.046-.254-.07-.28-.142-.058-.157.109-.1.165-.089.167.024.3.087.1.261Z" transform="translate(-2328.435 -315.395)" fill="#fff"/>
    <path id="Trazado_144" data-name="Trazado 144" d="M2479.289,320.936c.041-.106.112-.121.177-.033.031.042.019.117.027.176-.061-.06-.122-.12-.186-.176Z" transform="translate(-2330.581 -316.859)" fill="#fff"/>
    <path id="Trazado_145" data-name="Trazado 145" d="M1247.373,355.82c0-1.067.02-2.135-.01-3.2-.013-.455.138-.592.59-.581,1.358.034,2.72-.014,4.076.05a2.559,2.559,0,0,1,2.648,2.332,3.567,3.567,0,0,1,.08.463c.278,4.151-.987,4.863-4.3,4.769q-1.279-.036-2.56,0c-.419.013-.543-.134-.534-.54C1247.388,358.018,1247.373,356.919,1247.373,355.82Z" transform="translate(-1239.173 -344.493)" fill="#fff"/>
  </g>
</svg>
